<?xml version="1.0" encoding="utf-8"?>
<!-- Generator: Adobe Illustrator 22.1.0, SVG Export Plug-In . SVG Version: 6.00 Build 0)  -->
<svg version="1.1" id="Layer_1" xmlns="http://www.w3.org/2000/svg" xmlns:xlink="http://www.w3.org/1999/xlink" x="0px" y="0px"
	 viewBox="0 0 1024 1280" style="enable-background:new 0 0 1024 1280;" xml:space="preserve">
<style type="text/css">
	.st0{fill:none;}
	.st1{font-family:'OpenSans';}
	.st2{font-size:19.885px;}
	.st3{font-family:'OpenSans-Bold';}
	.st4{fill:#32B4DD;}
	.st5{fill:#30B3DD;}
	.st6{fill:#656E7C;}
	.st7{fill:#666E7C;}
	.st8{fill:#31B3DD;}
	.st9{fill:#31B4DD;}
</style>
<g>
	<rect x="14" y="138.8" class="st0" width="179" height="38.3"/>
	<text transform="matrix(1 0 0 1 13.999 153.874)"><tspan x="0" y="0" class="st1 st2">Adobe </tspan><tspan x="65.3" y="0" class="st3 st2">Lightroom</tspan></text>
	<rect x="282.4" y="138.8" class="st0" width="188.9" height="38.3"/>
	<text transform="matrix(1 0 0 1 282.4473 153.874)"><tspan x="0" y="0" class="st1 st2">Adobe </tspan><tspan x="65.3" y="0" class="st3 st2">Photoshop</tspan></text>
	<rect x="844.9" y="138.8" class="st0" width="167.6" height="38.3"/>
	<text transform="matrix(1 0 0 1 844.9092 153.874)"><tspan x="0" y="0" class="st1 st2">Adobe</tspan><tspan x="60.1" y="0" class="st3 st2"> Indesign</tspan></text>
	<rect x="566.5" y="138.8" class="st0" width="167.6" height="38.3"/>
	<text transform="matrix(1 0 0 1 566.5186 153.874)"><tspan x="0" y="0" class="st1 st2">Adobe </tspan><tspan x="65.3" y="0" class="st3 st2">Illustrator</tspan></text>
	<g>
		<path d="M85.9,71c-0.9,0.8-1.9,1.2-3,1.2c-1.6,0-3-0.6-3.9-1.7s-1.4-2.6-1.4-4.5c0-1.2,0.3-2.2,0.8-3.2c0.5-1,1.3-1.8,2.3-2.4
			c1-0.6,2.1-0.9,3.2-0.9c1.2,0,2.3,0.3,3.3,0.9s1.7,1.5,2.3,2.6c0.5,1.1,0.8,2.4,0.8,3.8v1.6c0,2-0.4,3.7-1.2,5.2s-1.9,2.6-3.4,3.4
			c-1.5,0.8-3.2,1.2-5.1,1.2h-0.3v-3.4l0.8,0C84,74.7,85.6,73.4,85.9,71z M84,69.2c0.9,0,1.6-0.4,2-1.2v-1.7c0-1.2-0.2-2-0.6-2.6
			c-0.4-0.6-0.9-0.8-1.6-0.8c-0.6,0-1.1,0.3-1.5,0.9c-0.4,0.6-0.6,1.4-0.6,2.3c0,0.9,0.2,1.7,0.6,2.3C82.7,68.9,83.3,69.2,84,69.2z"
			/>
		<path d="M105,70.6c0,2.5-0.6,4.3-1.7,5.7s-2.7,2-4.7,2c-2,0-3.6-0.7-4.7-2c-1.1-1.3-1.7-3.2-1.7-5.7v-3.3c0-2.5,0.6-4.3,1.7-5.7
			c1.1-1.3,2.7-2,4.7-2s3.6,0.7,4.7,2c1.1,1.3,1.7,3.2,1.7,5.7V70.6z M100.8,66.7c0-1.3-0.2-2.3-0.5-2.9s-0.9-1-1.6-1
			c-0.7,0-1.3,0.3-1.6,0.9c-0.3,0.6-0.5,1.5-0.5,2.7v4.6c0,1.4,0.2,2.3,0.5,3S98,75,98.7,75c0.7,0,1.2-0.3,1.6-0.9
			c0.3-0.6,0.5-1.6,0.5-2.9V66.7z"/>
		<path d="M107.2,63.3c0-1.1,0.4-2,1.1-2.7c0.7-0.7,1.7-1,2.9-1c1.2,0,2.2,0.3,3,1c0.7,0.7,1.1,1.6,1.1,2.8v0.9c0,1.1-0.4,2-1.1,2.7
			c-0.7,0.7-1.7,1-2.9,1c-1.2,0-2.2-0.3-3-1c-0.7-0.7-1.1-1.6-1.1-2.8V63.3z M109.9,64.3c0,0.4,0.1,0.8,0.4,1c0.2,0.3,0.6,0.4,1,0.4
			c0.9,0,1.3-0.6,1.3-1.7v-0.7c0-0.4-0.1-0.8-0.3-1.1c-0.2-0.3-0.6-0.4-1-0.4c-0.4,0-0.7,0.1-1,0.4c-0.2,0.3-0.4,0.6-0.4,1.1V64.3z
			 M112.1,76.6l-2-1l8.9-14.2l2,1L112.1,76.6z M115.9,73.5c0-1.1,0.4-2,1.1-2.7c0.7-0.7,1.7-1,2.9-1c1.2,0,2.2,0.3,3,1
			c0.7,0.7,1.1,1.6,1.1,2.8v0.9c0,1.1-0.4,2-1.1,2.7c-0.7,0.7-1.7,1-2.9,1c-1.2,0-2.2-0.3-3-1c-0.7-0.7-1.1-1.6-1.1-2.8V73.5z
			 M118.6,74.5c0,0.4,0.1,0.7,0.4,1c0.3,0.3,0.6,0.4,1,0.4c0.8,0,1.2-0.4,1.3-1.1l0-1.3c0-0.4-0.1-0.8-0.4-1.1
			c-0.2-0.3-0.6-0.4-1-0.4c-0.4,0-0.7,0.1-1,0.4c-0.2,0.3-0.4,0.6-0.4,1V74.5z"/>
	</g>
	<g>
		<path d="M620.9,70.3c0-3.6,0.8-6.3,2.3-8.1s3.8-2.6,6.9-2.6c1,0,1.9,0.1,2.4,0.2v3.1c-0.7-0.2-1.5-0.2-2.2-0.2
			c-1.3,0-2.4,0.2-3.2,0.6s-1.5,1-1.9,1.8c-0.4,0.8-0.7,1.9-0.7,3.3h0.2c0.8-1.4,2.1-2.1,4-2.1c1.6,0,2.9,0.5,3.8,1.5
			c0.9,1,1.4,2.4,1.4,4.2c0,1.9-0.5,3.5-1.6,4.6c-1.1,1.1-2.6,1.7-4.6,1.7c-1.3,0-2.5-0.3-3.5-0.9c-1-0.6-1.8-1.5-2.3-2.7
			C621.2,73.4,620.9,72,620.9,70.3z M627.5,75.2c0.8,0,1.5-0.3,1.9-0.8c0.4-0.6,0.7-1.3,0.7-2.4c0-0.9-0.2-1.6-0.6-2.1
			c-0.4-0.5-1-0.8-1.9-0.8c-0.8,0-1.4,0.3-2,0.8c-0.6,0.5-0.8,1.1-0.8,1.8c0,1,0.3,1.8,0.8,2.5C626.1,74.9,626.7,75.2,627.5,75.2z"
			/>
		<path d="M642.3,66.4c1.8,0,3.2,0.5,4.2,1.5c1,1,1.6,2.3,1.6,4.1c0,2-0.6,3.6-1.9,4.7c-1.3,1.1-3.1,1.6-5.4,1.6c-2,0-3.7-0.3-4.9-1
			V74c0.7,0.3,1.4,0.6,2.3,0.9s1.7,0.3,2.5,0.3c2.4,0,3.5-1,3.5-2.9c0-1.8-1.2-2.8-3.7-2.8c-0.4,0-0.9,0-1.5,0.1
			c-0.5,0.1-1,0.2-1.3,0.3l-1.5-0.8l0.7-9.3h9.9v3.3h-6.5l-0.3,3.6l0.4-0.1C640.9,66.4,641.5,66.4,642.3,66.4z"/>
		<path d="M658.7,65.2c0,1.9-0.4,3.4-1.1,4.3c-0.7,1-1.8,1.4-3.3,1.4c-1.4,0-2.4-0.5-3.2-1.5c-0.7-1-1.1-2.4-1.1-4.3
			c0-3.8,1.4-5.7,4.3-5.7c1.4,0,2.5,0.5,3.2,1.5S658.7,63.4,658.7,65.2z M653.1,65.3c0,1.1,0.1,1.8,0.3,2.4c0.2,0.5,0.5,0.8,0.9,0.8
			c0.8,0,1.2-1,1.2-3.1c0-2.1-0.4-3.1-1.2-3.1c-0.4,0-0.7,0.3-0.9,0.8C653.2,63.4,653.1,64.2,653.1,65.3z M667.3,59.8L657.1,78h-3
			l10.1-18.3H667.3z M671.5,72.5c0,1.9-0.4,3.3-1.1,4.3c-0.7,1-1.8,1.4-3.3,1.4c-1.4,0-2.4-0.5-3.2-1.5s-1.1-2.4-1.1-4.3
			c0-3.8,1.4-5.7,4.3-5.7c1.4,0,2.5,0.5,3.2,1.5S671.5,70.7,671.5,72.5z M665.9,72.5c0,1.1,0.1,1.8,0.3,2.4s0.5,0.8,0.9,0.8
			c0.8,0,1.2-1,1.2-3.1c0-2.1-0.4-3.1-1.2-3.1c-0.4,0-0.7,0.3-0.9,0.8C666,70.7,665.9,71.5,665.9,72.5z"/>
	</g>
	<g>
		<path d="M901.8,66.4c1.8,0,3.2,0.5,4.2,1.5c1,1,1.6,2.3,1.6,4.1c0,2-0.6,3.6-1.9,4.7c-1.3,1.1-3.1,1.6-5.4,1.6c-2,0-3.7-0.3-4.9-1
			V74c0.7,0.3,1.4,0.6,2.3,0.9s1.7,0.3,2.5,0.3c2.4,0,3.5-1,3.5-2.9c0-1.8-1.2-2.8-3.7-2.8c-0.4,0-0.9,0-1.5,0.1
			c-0.5,0.1-1,0.2-1.3,0.3l-1.5-0.8l0.7-9.3h9.9v3.3h-6.5l-0.3,3.6l0.4-0.1C900.4,66.4,901.1,66.4,901.8,66.4z"/>
		<path d="M916.4,66.4c1.8,0,3.2,0.5,4.2,1.5c1,1,1.6,2.3,1.6,4.1c0,2-0.6,3.6-1.9,4.7c-1.3,1.1-3.1,1.6-5.4,1.6c-2,0-3.7-0.3-4.9-1
			V74c0.7,0.3,1.4,0.6,2.3,0.9c0.9,0.2,1.7,0.3,2.5,0.3c2.4,0,3.5-1,3.5-2.9c0-1.8-1.2-2.8-3.7-2.8c-0.4,0-0.9,0-1.5,0.1
			s-1,0.2-1.3,0.3l-1.5-0.8l0.7-9.3h9.9v3.3h-6.5l-0.3,3.6l0.4-0.1C915,66.4,915.7,66.4,916.4,66.4z"/>
		<path d="M932.8,65.2c0,1.9-0.4,3.4-1.1,4.3c-0.7,1-1.8,1.4-3.3,1.4c-1.4,0-2.4-0.5-3.2-1.5c-0.7-1-1.1-2.4-1.1-4.3
			c0-3.8,1.4-5.7,4.3-5.7c1.4,0,2.5,0.5,3.2,1.5C932.4,62,932.8,63.4,932.8,65.2z M927.3,65.3c0,1.1,0.1,1.8,0.3,2.4
			c0.2,0.5,0.5,0.8,0.9,0.8c0.8,0,1.2-1,1.2-3.1c0-2.1-0.4-3.1-1.2-3.1c-0.4,0-0.7,0.3-0.9,0.8C927.4,63.4,927.3,64.2,927.3,65.3z
			 M941.4,59.8L931.3,78h-3l10.1-18.3H941.4z M945.6,72.5c0,1.9-0.4,3.3-1.1,4.3c-0.7,1-1.8,1.4-3.3,1.4c-1.4,0-2.4-0.5-3.2-1.5
			s-1.1-2.4-1.1-4.3c0-3.8,1.4-5.7,4.3-5.7c1.4,0,2.5,0.5,3.2,1.5C945.2,69.3,945.6,70.7,945.6,72.5z M940.1,72.5
			c0,1.1,0.1,1.8,0.3,2.4c0.2,0.5,0.5,0.8,0.9,0.8c0.8,0,1.2-1,1.2-3.1c0-2.1-0.4-3.1-1.2-3.1c-0.4,0-0.7,0.3-0.9,0.8
			C940.1,70.7,940.1,71.5,940.1,72.5z"/>
	</g>
	<g>
		<path class="st4" d="M96.4,23.6c0-1.1,0-2,0-2.9c0-1,0.6-1.6,1.4-1.7c0.9-0.1,1.7,0.6,1.7,1.6c0,2.2-0.1,4.3-0.3,6.5
			c-0.1,0.7-0.6,1.2-1.3,1.2c-0.7,0-1.2-0.5-1.3-1.2C96.4,25.8,96.4,24.6,96.4,23.6z"/>
		<path class="st4" d="M78.5,31.6c0,0.7-0.2,1.1-0.6,1.4c-0.5,0.3-1,0.3-1.5-0.1c-0.2-0.2-0.4-0.4-0.5-0.6c-1-1.7-2-3.4-2.9-5.1
			c-0.5-1-0.3-1.8,0.5-2.2c0.9-0.5,1.7-0.2,2.3,0.8c0.9,1.7,1.7,3.4,2.5,5.1C78.4,31.2,78.4,31.5,78.5,31.6z"/>
		<path class="st4" d="M107.2,28c0.5-2.1,0.9-4.2,1.5-6.3c0.2-0.9,1.1-1.3,1.9-1c0.8,0.2,1.3,0.8,1.1,1.7c-0.5,2.1-1.1,4.2-1.8,6.2
			c-0.3,0.8-1,1.1-1.7,0.9C107.5,29.4,107.1,28.8,107.2,28z"/>
		<path class="st5" d="M88.2,120.9c-1.1,0-1.8-0.7-1.6-1.8c0.4-2,0.8-4,1.3-6c0.2-0.9,1-1.4,1.7-1.2c0.7,0.2,1.2,0.9,1.1,1.8
			c-0.3,2-0.6,4-0.9,5.9C89.6,120.5,89.1,120.9,88.2,120.9z"/>
		<path class="st5" d="M75.8,107.5c-0.1,0.2-0.2,0.5-0.3,0.8c-1,1.7-1.9,3.4-3,5c-0.6,1-1.6,1.2-2.5,0.5c-0.6-0.5-0.8-1.2-0.3-1.9
			c1.1-1.8,2.3-3.5,3.5-5.3c0.4-0.6,1-0.9,1.7-0.6C75.5,106.4,75.8,106.8,75.8,107.5z"/>
		<path class="st4" d="M133.1,33.9c0,0.5-0.2,0.9-0.6,1.3c-1.3,1.3-2.6,2.7-4,4c-0.2,0.2-0.4,0.4-0.6,0.5c-0.6,0.2-1.2,0.2-1.6-0.3
			c-0.5-0.5-0.5-1.1-0.1-1.6c1.4-1.7,2.9-3.4,4.3-5c0.4-0.5,1-0.5,1.6-0.2C132.7,32.8,133,33.2,133.1,33.9z"/>
		<path class="st4" d="M117.5,24.3c0,0.1,0,0.3-0.1,0.5c-0.8,1.8-1.6,3.7-2.4,5.5c-0.4,0.8-1.1,1.1-1.8,0.9c-0.7-0.3-1-1-0.7-1.9
			c0.6-1.9,1.3-3.8,2-5.6c0.3-0.9,1-1.2,1.8-1.1C117.1,22.7,117.5,23.3,117.5,24.3z"/>
		<path class="st4" d="M73.9,34.5c0,0.7-0.3,1.1-0.8,1.4c-0.5,0.2-0.9,0.1-1.4-0.2c-0.2-0.1-0.3-0.3-0.4-0.5
			c-1.2-1.6-2.3-3.1-3.5-4.7c-0.6-0.8-0.5-1.6,0.1-2.2c0.7-0.6,1.7-0.6,2.3,0.2c1.2,1.7,2.3,3.5,3.5,5.3
			C73.9,34.1,73.9,34.4,73.9,34.5z"/>
		<path class="st4" d="M61.2,47.5c-0.1,0-0.4-0.1-0.6-0.2c-1.7-1.1-3.5-2.1-5.2-3.3c-0.8-0.5-0.9-1.2-0.6-2c0.4-0.9,1.4-1.3,2.3-0.7
			c1.7,1.1,3.3,2.4,5,3.6c0.6,0.4,0.8,1,0.5,1.7C62.4,47.2,61.9,47.5,61.2,47.5z"/>
		<path class="st4" d="M140.9,43.4c0,0.6-0.2,1-0.7,1.3c-1.7,1-3.4,2.1-5.1,3.1c-0.8,0.5-1.6,0.3-2-0.3c-0.4-0.6-0.3-1.4,0.5-2
			c1.7-1.2,3.4-2.3,5-3.5C139.6,41.2,140.9,42.2,140.9,43.4z"/>
		<path class="st4" d="M54.3,62.1c-1.8-0.3-3.8-0.7-5.8-1.1c-0.9-0.2-1.4-1-1.2-1.8c0.2-0.9,1-1.4,2-1.2c1.9,0.5,3.9,1,5.8,1.5
			c1,0.3,1.4,0.9,1.2,1.6C56.2,61.8,55.6,62.2,54.3,62.1z"/>
		<path class="st4" d="M48.7,79.4c-1.2,0-1.8-0.4-2-1.3c-0.1-0.9,0.3-1.6,1.3-1.7c2.1-0.3,4.2-0.6,6.3-0.8c0.8-0.1,1.4,0.5,1.5,1.2
			c0.1,0.7-0.3,1.4-1.1,1.6C52.6,78.7,50.5,79,48.7,79.4z"/>
		<path class="st4" d="M141.2,75.8c1.9,0.2,3.8,0.4,5.6,0.7c1.1,0.2,1.5,0.7,1.6,1.5c0,1.1-0.7,1.7-1.9,1.6
			c-1.4-0.2-2.8-0.5-4.1-0.7c-0.5-0.1-1.1-0.2-1.6-0.3c-1-0.2-1.6-0.9-1.4-1.7C139.4,76.2,140.1,75.7,141.2,75.8z"/>
		<path class="st6" d="M55.5,80.8c0.7,0,1.2,0.3,1.4,0.9c0.2,0.7-0.1,1.2-0.6,1.5c-0.3,0.2-0.6,0.3-0.9,0.4
			c-1.7,0.5-3.4,1.1-5.1,1.6c-1.2,0.3-1.9,0-2.2-0.9c-0.3-0.9,0.2-1.9,1.3-2.1c1.8-0.4,3.6-0.9,5.4-1.3
			C54.9,80.9,55.2,80.8,55.5,80.8z"/>
		<path class="st4" d="M138.1,86.2c0.1,0,0.3,0.1,0.5,0.2c1.8,0.7,3.5,1.3,5.3,2.1c1.1,0.4,1.5,1.3,1.1,2.2
			c-0.4,0.9-1.3,1.2-2.3,0.7c-1.7-0.7-3.3-1.5-5-2.3c-0.2-0.1-0.5-0.2-0.7-0.4c-0.5-0.4-0.7-1-0.4-1.6
			C136.8,86.3,137.3,86.1,138.1,86.2z"/>
		<path class="st7" d="M59.7,90.7c0.6,0,1.1,0.3,1.2,0.9c0.2,0.5,0.1,1.1-0.4,1.5c-0.6,0.4-1.2,0.8-1.8,1.2
			c-1.2,0.7-2.4,1.5-3.6,2.2c-1,0.6-1.9,0.3-2.3-0.5c-0.4-0.8-0.2-1.6,0.7-2.2c1.7-0.9,3.4-1.8,5.1-2.7
			C59.1,90.8,59.4,90.7,59.7,90.7z"/>
		<path class="st5" d="M80.5,110.3c0,0.1-0.1,0.4-0.2,0.6c-0.7,1.7-1.4,3.5-2.2,5.2c-0.6,1.2-1.7,1.5-2.6,0.6
			c-0.5-0.5-0.7-1-0.4-1.6c1-1.9,1.9-3.9,2.9-5.8c0.3-0.6,0.9-0.9,1.7-0.6C80.3,108.9,80.5,109.5,80.5,110.3z"/>
		<path class="st4" d="M123,36.4c-0.8,0-1.4-0.7-1.3-1.5c0-0.4,0.3-0.7,0.5-1c1-1.5,2-3.1,3.1-4.6c0.7-1,1.5-1.2,2.3-0.6
			c0.8,0.6,0.9,1.5,0.2,2.4c-1.1,1.5-2.3,3-3.5,4.5C124,36.1,123.6,36.4,123,36.4z"/>
		<path class="st4" d="M83.4,29.6c0,0.6-0.2,1.1-0.7,1.3C82,31.1,81.5,31,81,30.5c-0.1-0.2-0.2-0.4-0.3-0.5
			c-0.8-1.8-1.6-3.7-2.3-5.5c-0.4-0.9,0-1.6,0.8-2c0.8-0.4,1.7-0.2,2,0.7c0.8,2,1.4,4.1,2.1,6.1C83.4,29.4,83.4,29.5,83.4,29.6z"/>
		<path class="st4" d="M141.1,62.8c-1.5,0.1-2-0.2-2.2-0.9c-0.2-0.8,0.3-1.5,1.3-1.7c1.9-0.5,3.8-0.9,5.7-1.4c1.1-0.2,1.9,0.3,2,1.3
			c0.1,0.8-0.3,1.5-1.3,1.7C144.7,62.2,142.7,62.5,141.1,62.8z"/>
		<path class="st4" d="M137,52.7c-0.8,0-1.2-0.3-1.5-0.9c-0.2-0.6,0-1.1,0.4-1.4c0.2-0.2,0.4-0.3,0.7-0.4c1.6-0.9,3.2-1.7,4.9-2.6
			c1.1-0.5,2-0.2,2.4,0.8c0.3,0.8,0,1.5-1.1,2c-1.7,0.8-3.4,1.5-5,2.3C137.5,52.6,137.2,52.7,137,52.7z"/>
		<path class="st4" d="M123,27.1c0,0.1-0.1,0.4-0.2,0.6c-1,1.7-2,3.3-3,5c-0.4,0.6-0.9,1-1.6,0.8c-0.8-0.1-1.3-1.1-0.9-1.9
			c0.9-2,1.9-3.9,2.9-5.8c0.4-0.7,1.1-0.9,1.8-0.6C122.8,25.6,123.1,26.1,123,27.1z"/>
		<path class="st4" d="M93.8,26.1c0,0.1,0,0.6,0,1.1c0,0.8-0.5,1.2-1.2,1.3c-0.7,0.1-1.2-0.3-1.3-1c-0.2-0.6-0.3-1.3-0.4-1.9
			c-0.2-1.3-0.4-2.7-0.6-4c-0.1-0.5-0.2-1,0.1-1.4c0.3-0.6,1.2-1,1.8-0.8c0.7,0.2,1.2,0.8,1.2,1.5C93.5,22.5,93.7,24.1,93.8,26.1z"
			/>
		<path class="st4" d="M48.3,64c1.9,0.2,3.9,0.4,5.8,0.7c1,0.1,1.4,0.7,1.4,1.5c0,0.8-0.6,1.4-1.7,1.3c-1.9-0.2-3.8-0.2-5.7-0.3
			c-0.3,0-0.6-0.1-0.9-0.3c-0.7-0.3-1-1.1-0.8-1.8C46.6,64.4,47.2,64,48.3,64z"/>
		<path class="st7" d="M51.5,91.2c-0.7,0-1.4-0.6-1.5-1.3c-0.2-0.8,0.1-1.4,0.8-1.7c0.7-0.3,1.5-0.6,2.2-0.9c1.3-0.5,2.5-1,3.8-1.4
			c0.8-0.3,1.5,0.1,1.7,0.8c0.3,0.7,0,1.4-0.6,1.7c-2,1-4.1,1.9-6.1,2.8C51.7,91.2,51.6,91.2,51.5,91.2z"/>
		<path class="st6" d="M63.9,96.6c0,0.5-0.2,0.9-0.7,1.2c-1.5,1.2-2.9,2.4-4.4,3.5c-0.9,0.7-1.8,0.6-2.4-0.1
			c-0.6-0.8-0.4-1.7,0.5-2.4c1.6-1.1,3.1-2.3,4.8-3.3C62.8,94.8,63.9,95.3,63.9,96.6z"/>
		<path class="st4" d="M71.4,104.3c0,0.5-0.2,0.9-0.5,1.2c-1.1,1.5-2.2,2.9-3.3,4.4c-0.3,0.5-0.7,0.8-1.3,0.8
			c-0.6,0-1.2-0.2-1.5-0.8c-0.4-0.6-0.3-1.2,0.1-1.7c1.4-1.6,2.8-3.3,4.2-4.9c0.4-0.5,1.1-0.5,1.7-0.2
			C71.2,103.3,71.4,103.8,71.4,104.3z"/>
		<path class="st4" d="M124.9,103.1c0.5,0.1,0.9,0.3,1.2,0.7c1.2,1.4,2.5,2.9,3.7,4.3c0.8,1,0.7,1.8-0.1,2.4
			c-0.8,0.6-1.7,0.5-2.4-0.4c-1.2-1.5-2.3-3.1-3.5-4.7c-0.4-0.5-0.5-1.1-0.2-1.7C123.9,103.3,124.4,103.1,124.9,103.1z"/>
		<path class="st4" d="M125.3,113.1c0,0.5-0.4,1-1.1,1.2c-0.7,0.2-1.4,0.1-1.7-0.5c-1.1-1.8-2.2-3.7-3.2-5.6
			c-0.4-0.8-0.1-1.5,0.5-1.8c0.6-0.3,1.4-0.2,1.9,0.5c0.9,1.3,1.8,2.7,2.7,4c0.2,0.4,0.5,0.7,0.7,1.1
			C125.2,112.3,125.3,112.5,125.3,113.1z"/>
		<path class="st4" d="M119.8,115.8c0,0.7-0.4,1.2-1,1.5c-0.7,0.3-1.5,0.1-1.8-0.6c-0.9-2-1.8-4.1-2.6-6.1c-0.3-0.7,0-1.3,0.7-1.6
			c0.6-0.3,1.3-0.1,1.8,0.6c0.4,0.7,0.8,1.5,1.2,2.3c0.5,0.9,0.9,1.8,1.4,2.7C119.6,114.9,119.8,115.3,119.8,115.8z"/>
		<path class="st4" d="M104.1,113.9c0-1.3,0.4-1.8,1.1-1.9c0.7-0.1,1.4,0.3,1.6,1.1c0.5,2,0.9,4.1,1.3,6.2c0.2,1.1-0.3,1.6-1.2,1.7
			c-1,0.1-1.6-0.2-1.8-1.2C104.7,117.7,104.4,115.6,104.1,113.9z"/>
		<path class="st5" d="M95.9,117c0,1,0.1,2.1,0,3.1c-0.1,1-0.5,1.4-1.3,1.5c-1.1,0.1-1.9-0.5-1.8-1.5c0.1-2.1,0.4-4.2,0.6-6.3
			c0.1-0.8,0.7-1.3,1.4-1.3c0.7,0,1.2,0.6,1.3,1.6c0,1,0,1.9,0,2.9C96,117,96,117,95.9,117z"/>
		<path class="st4" d="M88.5,27.6c0,1.1-0.4,1.6-1.1,1.8c-0.7,0.1-1.3-0.2-1.6-1c-0.6-2-1.2-4-1.7-6.1c-0.2-0.8,0.3-1.5,1.1-1.7
			c0.9-0.3,1.7,0.1,1.9,1C87.7,23.6,88.1,25.7,88.5,27.6z"/>
		<path class="st4" d="M69.7,38c0,0.9-0.7,1.5-1.6,1.4c-0.4-0.1-0.7-0.3-1-0.6c-1.3-1.4-2.7-2.8-4-4.2c-0.7-0.8-0.7-1.6,0-2.3
			c0.5-0.6,1.8-0.6,2.4,0.2c1.2,1.5,2.4,2.9,3.6,4.3C69.5,37.2,69.7,37.5,69.7,38z"/>
		<path class="st4" d="M142.1,68.2c-0.3,0-0.4,0-0.6,0c-1.2,0-1.9-0.5-1.9-1.3c0-0.8,0.6-1.4,1.8-1.5c1.8-0.2,3.6-0.4,5.5-0.6
			c1.1-0.1,1.7,0.4,1.8,1.3c0.1,1.1-0.4,1.7-1.5,1.8C145.4,68,143.7,68.1,142.1,68.2z"/>
		<path class="st4" d="M139.8,81.1c2.1,0.5,4.2,1,6.4,1.6c0.8,0.2,1.1,1.2,0.8,2c-0.3,0.8-1,1.2-1.8,0.9c-2-0.6-3.9-1.2-5.9-1.9
			c-0.9-0.3-1.2-1-1.1-1.8C138.4,81.4,139,81,139.8,81.1z"/>
		<path class="st4" d="M139,57.7c-0.7,0-1.2-0.1-1.4-0.7c-0.2-0.7-0.1-1.3,0.5-1.7c0.3-0.2,0.7-0.4,1-0.5c1.6-0.6,3.1-1.2,4.7-1.7
			c1.2-0.4,2-0.1,2.4,0.8c0.3,0.9-0.1,1.7-1.2,2.1c-1.7,0.6-3.5,1.1-5.2,1.6C139.5,57.6,139.2,57.6,139,57.7z"/>
		<path class="st5" d="M85.5,112.4c-0.6,1.9-1.1,4-1.8,6c-0.3,0.9-1,1.2-1.8,1c-0.9-0.2-1.4-0.9-1.2-1.8c0.1-0.5,0.3-0.9,0.4-1.4
			c0.6-1.6,1.1-3.2,1.7-4.7c0.3-0.8,1-1.1,1.7-0.9C85.3,110.9,85.6,111.5,85.5,112.4z"/>
		<path class="st4" d="M101.9,26.7c0.2-2,0.4-3.9,0.6-5.8c0.1-1,0.8-1.5,1.8-1.3c0.9,0.1,1.4,0.8,1.3,1.7c-0.3,1.9-0.6,3.8-0.9,5.7
			c0,0.3-0.1,0.5-0.3,0.8c-0.3,0.5-0.7,0.9-1.3,0.8c-0.7-0.1-1.1-0.5-1.2-1.1C101.9,27.2,101.9,26.8,101.9,26.7z"/>
		<path class="st4" d="M137.1,102.1c-0.4,0-0.7-0.3-1.1-0.5c-1.4-1.1-2.8-2.2-4.1-3.4c-0.2-0.2-0.5-0.4-0.7-0.7
			c-0.3-0.5-0.4-1,0-1.5c0.3-0.5,0.9-0.6,1.4-0.5c0.2,0,0.4,0.1,0.6,0.2c1.7,1.2,3.5,2.4,5.1,3.7c0.8,0.6,0.7,1.7-0.1,2.4
			C137.9,102,137.6,102.1,137.1,102.1z"/>
		<path class="st6" d="M61.5,106.6c-0.5,0-0.9-0.4-1.2-0.9c-0.3-0.5-0.3-1,0.1-1.5c0.2-0.3,0.4-0.5,0.7-0.7c1.3-1.2,2.6-2.3,3.9-3.5
			c0.9-0.8,1.7-0.9,2.3-0.2c0.5,0.6,0.5,1.4-0.3,2.2c-1.3,1.4-2.7,2.8-4.1,4.2C62.5,106.4,62.1,106.6,61.5,106.6z"/>
		<path class="st4" d="M65.9,41.9c0,0.9-0.8,1.5-1.7,1.2c-0.3-0.1-0.6-0.3-0.8-0.5c-1.5-1.2-3-2.3-4.4-3.6c-1-0.8-0.9-1.9,0-2.6
			c0.6-0.4,1.2-0.5,1.8,0c1.6,1.4,3.2,2.9,4.7,4.4C65.8,41.2,65.9,41.5,65.9,41.9z"/>
		<path class="st4" d="M137.3,38.3c0,0.5-0.2,0.9-0.6,1.3c-1.6,1.2-3.1,2.5-4.7,3.7c-0.8,0.6-1.5,0.5-2,0c-0.6-0.6-0.5-1.4,0.3-2.1
			c1.5-1.4,3-2.7,4.5-4c0.5-0.4,1.1-0.5,1.6-0.3C136.9,37.2,137.2,37.7,137.3,38.3z"/>
		<path class="st4" d="M60,50.5c0,0.9-0.4,1.4-1.1,1.5c-0.4,0-0.7,0-1.1-0.2c-1.7-0.8-3.4-1.6-5.1-2.4c-1-0.5-1.4-1.4-0.9-2.2
			c0.4-0.9,1.3-1.1,2.3-0.6c1.7,0.9,3.3,1.8,5,2.7C59.5,49.7,59.9,50.1,60,50.5z"/>
		<path class="st4" d="M56.3,57c-0.1,0-0.3,0-0.4-0.1c-1.9-0.6-3.9-1.2-5.8-1.9c-1.1-0.4-1.3-1.6-0.6-2.5c0.4-0.5,1-0.7,1.6-0.4
			c2,0.7,3.9,1.5,5.8,2.3c0.6,0.3,1,0.8,0.9,1.6C57.7,56.8,57.1,57,56.3,57z"/>
		<path class="st4" d="M109.3,112.4c0-0.8,0.3-1.4,1-1.6c0.7-0.2,1.3,0.1,1.6,0.8c0.7,2,1.5,4.1,2.1,6.1c0.3,0.8-0.3,1.6-1.1,1.9
			c-0.8,0.2-1.6-0.2-1.9-1.1c-0.5-1.6-0.9-3.2-1.4-4.8C109.6,113.2,109.4,112.7,109.3,112.4z"/>
		<path class="st4" d="M128.9,99.5c0.3,0,0.6,0.1,0.8,0.3c1.6,1.4,3.1,2.8,4.7,4.3c0.6,0.6,0.6,1.2,0.3,1.9
			c-0.4,0.8-1.5,1.1-2.2,0.5c-1.6-1.5-3.1-3.1-4.6-4.8c-0.4-0.4-0.4-1-0.1-1.5C127.9,99.7,128.3,99.5,128.9,99.5z"/>
		<path class="st4" d="M50,73.2c-0.8,0-1.5,0-2.3,0c-1,0-1.5-0.6-1.6-1.5c0-0.9,0.5-1.5,1.5-1.5c2.1,0,4.1,0,6.2,0
			c0.9,0,1.5,0.6,1.6,1.3c0,0.7-0.5,1.2-1.5,1.4C52.6,73.1,51.3,73.1,50,73.2z"/>
		<path class="st4" d="M98.9,117.1c0-0.9-0.1-1.8-0.1-2.7c0-1.1,0.6-1.9,1.4-1.9c0.7,0,1.3,0.7,1.4,1.7c0.2,1.9,0.3,3.8,0.5,5.6
			c0.1,1.1-0.4,1.7-1.3,1.8c-1.1,0.1-1.7-0.4-1.7-1.6c0-0.5,0-1,0-1.5C98.9,118.1,98.9,117.6,98.9,117.1
			C98.9,117.1,98.9,117.1,98.9,117.1z"/>
		<path class="st8" d="M135.6,91c0.2,0.1,0.5,0.2,0.8,0.3c1.6,0.9,3.2,1.7,4.9,2.6c1,0.6,1.3,1.4,0.8,2.3c-0.4,0.8-1.3,1-2.3,0.5
			c-1.7-1-3.4-2.1-5.1-3.2c-0.7-0.5-0.9-1.2-0.6-1.8C134.4,91.1,134.9,91,135.6,91z"/>
		<path class="st9" d="M144.4,70.5c1,0,1.9,0,2.9,0c1.1,0,1.7,0.7,1.6,1.6c-0.1,0.9-0.7,1.5-1.7,1.5c-2-0.1-4-0.2-6-0.4
			c-1-0.1-1.5-0.6-1.4-1.4c0-0.8,0.5-1.2,1.5-1.3C142.4,70.4,143.4,70.5,144.4,70.5C144.4,70.5,144.4,70.5,144.4,70.5z"/>
	</g>
	<g>
		<path class="st4" d="M362,23.6c0-1.1,0-2,0-2.9c0-1,0.6-1.6,1.4-1.7c0.9-0.1,1.7,0.6,1.7,1.6c0,2.2-0.1,4.3-0.3,6.5
			c-0.1,0.7-0.6,1.2-1.3,1.2c-0.7,0-1.2-0.5-1.3-1.2C362.1,25.8,362,24.6,362,23.6z"/>
		<path class="st4" d="M344.1,31.6c0,0.7-0.2,1.1-0.6,1.4c-0.5,0.3-1,0.3-1.5-0.1c-0.2-0.2-0.4-0.4-0.5-0.6c-1-1.7-2-3.4-2.9-5.1
			c-0.5-1-0.3-1.8,0.5-2.2c0.9-0.5,1.7-0.2,2.3,0.8c0.9,1.7,1.7,3.4,2.5,5.1C344,31.2,344.1,31.5,344.1,31.6z"/>
		<path class="st4" d="M372.8,28c0.5-2.1,0.9-4.2,1.5-6.3c0.2-0.9,1.1-1.3,1.9-1c0.8,0.2,1.3,0.8,1.1,1.7c-0.5,2.1-1.1,4.2-1.8,6.2
			c-0.3,0.8-1,1.1-1.7,0.9C373.2,29.4,372.7,28.8,372.8,28z"/>
		<path class="st6" d="M353.8,120.9c-1.1,0-1.8-0.7-1.6-1.8c0.4-2,0.8-4,1.3-6c0.2-0.9,1-1.4,1.7-1.2c0.7,0.2,1.2,0.9,1.1,1.8
			c-0.3,2-0.6,4-0.9,5.9C355.2,120.5,354.7,120.9,353.8,120.9z"/>
		<path class="st6" d="M341.4,107.5c-0.1,0.2-0.2,0.5-0.3,0.8c-1,1.7-1.9,3.4-3,5c-0.6,1-1.6,1.2-2.5,0.5c-0.6-0.5-0.8-1.2-0.3-1.9
			c1.1-1.8,2.3-3.5,3.5-5.3c0.4-0.6,1-0.9,1.7-0.6C341.1,106.4,341.4,106.8,341.4,107.5z"/>
		<path class="st4" d="M398.7,33.9c0,0.5-0.2,0.9-0.6,1.3c-1.3,1.3-2.6,2.7-4,4c-0.2,0.2-0.4,0.4-0.6,0.5c-0.6,0.2-1.2,0.2-1.6-0.3
			c-0.5-0.5-0.5-1.1-0.1-1.6c1.4-1.7,2.9-3.4,4.3-5c0.4-0.5,1-0.5,1.6-0.2C398.3,32.8,398.6,33.2,398.7,33.9z"/>
		<path class="st4" d="M383.1,24.3c0,0.1,0,0.3-0.1,0.5c-0.8,1.8-1.6,3.7-2.4,5.5c-0.4,0.8-1.1,1.1-1.8,0.9c-0.7-0.3-1-1-0.7-1.9
			c0.6-1.9,1.3-3.8,2-5.6c0.3-0.9,1-1.2,1.8-1.1C382.7,22.7,383.1,23.3,383.1,24.3z"/>
		<path class="st4" d="M339.5,34.5c0,0.7-0.3,1.1-0.8,1.4c-0.5,0.2-0.9,0.1-1.4-0.2c-0.2-0.1-0.3-0.3-0.4-0.5
			c-1.2-1.6-2.3-3.1-3.5-4.7c-0.6-0.8-0.5-1.6,0.1-2.2c0.7-0.6,1.7-0.6,2.3,0.2c1.2,1.7,2.3,3.5,3.5,5.3
			C339.5,34.1,339.5,34.4,339.5,34.5z"/>
		<path class="st4" d="M326.8,47.5c-0.1,0-0.4-0.1-0.6-0.2c-1.7-1.1-3.5-2.1-5.2-3.3c-0.8-0.5-0.9-1.2-0.6-2
			c0.4-0.9,1.4-1.3,2.3-0.7c1.7,1.1,3.3,2.4,5,3.6c0.6,0.4,0.8,1,0.5,1.7C328,47.2,327.5,47.5,326.8,47.5z"/>
		<path class="st4" d="M406.5,43.4c0,0.6-0.2,1-0.7,1.3c-1.7,1-3.4,2.1-5.1,3.1c-0.8,0.5-1.6,0.3-2-0.3c-0.4-0.6-0.3-1.4,0.5-2
			c1.7-1.2,3.4-2.3,5-3.5C405.2,41.2,406.5,42.2,406.5,43.4z"/>
		<path class="st4" d="M319.9,62.1c-1.8-0.3-3.8-0.7-5.8-1.1c-0.9-0.2-1.4-1-1.2-1.8c0.2-0.9,1-1.4,2-1.2c1.9,0.5,3.9,1,5.8,1.5
			c1,0.3,1.4,0.9,1.2,1.6C321.8,61.8,321.2,62.2,319.9,62.1z"/>
		<path class="st4" d="M314.3,79.4c-1.2,0-1.8-0.4-2-1.3c-0.1-0.9,0.3-1.6,1.3-1.7c2.1-0.3,4.2-0.6,6.3-0.8c0.8-0.1,1.4,0.5,1.5,1.2
			c0.1,0.7-0.3,1.4-1.1,1.6C318.2,78.7,316.1,79,314.3,79.4z"/>
		<path class="st4" d="M406.8,75.8c1.9,0.2,3.8,0.4,5.6,0.7c1.1,0.2,1.5,0.7,1.6,1.5c0,1.1-0.7,1.7-1.9,1.6
			c-1.4-0.2-2.8-0.5-4.1-0.7c-0.5-0.1-1.1-0.2-1.6-0.3c-1-0.2-1.6-0.9-1.4-1.7C405,76.2,405.7,75.7,406.8,75.8z"/>
		<path class="st6" d="M321.1,80.8c0.7,0,1.2,0.3,1.4,0.9c0.2,0.7-0.1,1.2-0.6,1.5c-0.3,0.2-0.6,0.3-0.9,0.4
			c-1.7,0.5-3.4,1.1-5.1,1.6c-1.2,0.3-1.9,0-2.2-0.9c-0.3-0.9,0.2-1.9,1.3-2.1c1.8-0.4,3.6-0.9,5.4-1.3
			C320.5,80.9,320.8,80.8,321.1,80.8z"/>
		<path class="st4" d="M403.7,86.2c0.1,0,0.3,0.1,0.5,0.2c1.8,0.7,3.5,1.3,5.3,2.1c1.1,0.4,1.5,1.3,1.1,2.2
			c-0.4,0.9-1.3,1.2-2.3,0.7c-1.7-0.7-3.3-1.5-5-2.3c-0.2-0.1-0.5-0.2-0.7-0.4c-0.5-0.4-0.7-1-0.4-1.6
			C402.4,86.3,402.9,86.1,403.7,86.2z"/>
		<path class="st7" d="M325.3,90.7c0.6,0,1.1,0.3,1.2,0.9c0.2,0.5,0.1,1.1-0.4,1.5c-0.6,0.4-1.2,0.8-1.8,1.2
			c-1.2,0.7-2.4,1.5-3.6,2.2c-1,0.6-1.9,0.3-2.3-0.5c-0.4-0.8-0.2-1.6,0.7-2.2c1.7-0.9,3.4-1.8,5.1-2.7
			C324.7,90.8,325,90.7,325.3,90.7z"/>
		<path class="st6" d="M346.1,110.3c0,0.1-0.1,0.4-0.2,0.6c-0.7,1.7-1.4,3.5-2.2,5.2c-0.6,1.2-1.7,1.5-2.6,0.6
			c-0.5-0.5-0.7-1-0.4-1.6c1-1.9,1.9-3.9,2.9-5.8c0.3-0.6,0.9-0.9,1.7-0.6C345.9,108.9,346.1,109.5,346.1,110.3z"/>
		<path class="st4" d="M388.6,36.4c-0.8,0-1.4-0.7-1.3-1.5c0-0.4,0.3-0.7,0.5-1c1-1.5,2-3.1,3.1-4.6c0.7-1,1.5-1.2,2.3-0.6
			c0.8,0.6,0.9,1.5,0.2,2.4c-1.1,1.5-2.3,3-3.5,4.5C389.6,36.1,389.2,36.4,388.6,36.4z"/>
		<path class="st4" d="M349,29.6c0,0.6-0.2,1.1-0.7,1.3c-0.6,0.2-1.2,0.1-1.6-0.4c-0.1-0.2-0.2-0.4-0.3-0.5
			c-0.8-1.8-1.6-3.7-2.3-5.5c-0.4-0.9,0-1.6,0.8-2c0.8-0.4,1.7-0.2,2,0.7c0.8,2,1.4,4.1,2.1,6.1C349,29.4,349,29.5,349,29.6z"/>
		<path class="st4" d="M406.7,62.8c-1.5,0.1-2-0.2-2.2-0.9c-0.2-0.8,0.3-1.5,1.3-1.7c1.9-0.5,3.8-0.9,5.7-1.4c1.1-0.2,1.9,0.3,2,1.3
			c0.1,0.8-0.3,1.5-1.3,1.7C410.3,62.2,408.3,62.5,406.7,62.8z"/>
		<path class="st4" d="M402.6,52.7c-0.8,0-1.2-0.3-1.5-0.9c-0.2-0.6,0-1.1,0.4-1.4c0.2-0.2,0.4-0.3,0.7-0.4c1.6-0.9,3.2-1.7,4.9-2.6
			c1.1-0.5,2-0.2,2.4,0.8c0.3,0.8,0,1.5-1.1,2c-1.7,0.8-3.4,1.5-5,2.3C403.1,52.6,402.8,52.7,402.6,52.7z"/>
		<path class="st4" d="M388.6,27.1c0,0.1-0.1,0.4-0.2,0.6c-1,1.7-2,3.3-3,5c-0.4,0.6-0.9,1-1.6,0.8c-0.8-0.1-1.3-1.1-0.9-1.9
			c0.9-2,1.9-3.9,2.9-5.8c0.4-0.7,1.1-0.9,1.8-0.6C388.4,25.6,388.7,26.1,388.6,27.1z"/>
		<path class="st4" d="M359.4,26.1c0,0.1,0,0.6,0,1.1c0,0.8-0.5,1.2-1.2,1.3c-0.7,0.1-1.2-0.3-1.3-1c-0.2-0.6-0.3-1.3-0.4-1.9
			c-0.2-1.3-0.4-2.7-0.6-4c-0.1-0.5-0.2-1,0.1-1.4c0.3-0.6,1.2-1,1.8-0.8c0.7,0.2,1.2,0.8,1.2,1.5C359.1,22.5,359.3,24.1,359.4,26.1
			z"/>
		<path class="st4" d="M313.9,64c1.9,0.2,3.9,0.4,5.8,0.7c1,0.1,1.4,0.7,1.4,1.5c0,0.8-0.6,1.4-1.7,1.3c-1.9-0.2-3.8-0.2-5.7-0.3
			c-0.3,0-0.6-0.1-0.9-0.3c-0.7-0.3-1-1.1-0.8-1.8C312.2,64.4,312.8,64,313.9,64z"/>
		<path class="st7" d="M317.1,91.2c-0.7,0-1.4-0.6-1.5-1.3c-0.2-0.8,0.1-1.4,0.8-1.7c0.7-0.3,1.5-0.6,2.2-0.9c1.3-0.5,2.5-1,3.8-1.4
			c0.8-0.3,1.5,0.1,1.7,0.8c0.3,0.7,0,1.4-0.6,1.7c-2,1-4.1,1.9-6.1,2.8C317.3,91.2,317.2,91.2,317.1,91.2z"/>
		<path class="st6" d="M329.6,96.6c0,0.5-0.2,0.9-0.7,1.2c-1.5,1.2-2.9,2.4-4.4,3.5c-0.9,0.7-1.8,0.6-2.4-0.1
			c-0.6-0.8-0.4-1.7,0.5-2.4c1.6-1.1,3.1-2.3,4.8-3.3C328.4,94.8,329.5,95.3,329.6,96.6z"/>
		<path class="st6" d="M337,104.3c0,0.5-0.2,0.9-0.5,1.2c-1.1,1.5-2.2,2.9-3.3,4.4c-0.3,0.5-0.7,0.8-1.3,0.8c-0.6,0-1.2-0.2-1.5-0.8
			c-0.4-0.6-0.3-1.2,0.1-1.7c1.4-1.6,2.8-3.3,4.2-4.9c0.4-0.5,1.1-0.5,1.7-0.2C336.8,103.3,337,103.8,337,104.3z"/>
		<path class="st6" d="M390.5,103.1c0.5,0.1,0.9,0.3,1.2,0.7c1.2,1.4,2.5,2.9,3.7,4.3c0.8,1,0.7,1.8-0.1,2.4
			c-0.8,0.6-1.7,0.5-2.4-0.4c-1.2-1.5-2.3-3.1-3.5-4.7c-0.4-0.5-0.5-1.1-0.2-1.7C389.6,103.3,390,103.1,390.5,103.1z"/>
		<path class="st6" d="M390.9,113.1c0,0.5-0.4,1-1.1,1.2c-0.7,0.2-1.4,0.1-1.7-0.5c-1.1-1.8-2.2-3.7-3.2-5.6
			c-0.4-0.8-0.1-1.5,0.5-1.8c0.6-0.3,1.4-0.2,1.9,0.5c0.9,1.3,1.8,2.7,2.7,4c0.2,0.4,0.5,0.7,0.7,1.1
			C390.8,112.3,390.9,112.5,390.9,113.1z"/>
		<path class="st7" d="M385.4,115.8c0,0.7-0.4,1.2-1,1.5c-0.7,0.3-1.5,0.1-1.8-0.6c-0.9-2-1.8-4.1-2.6-6.1c-0.3-0.7,0-1.3,0.7-1.6
			c0.6-0.3,1.3-0.1,1.8,0.6c0.4,0.7,0.8,1.5,1.2,2.3c0.5,0.9,0.9,1.8,1.4,2.7C385.2,114.9,385.4,115.3,385.4,115.8z"/>
		<path class="st6" d="M369.7,113.9c0-1.3,0.4-1.8,1.1-1.9c0.7-0.1,1.4,0.3,1.6,1.1c0.5,2,0.9,4.1,1.3,6.2c0.2,1.1-0.3,1.6-1.2,1.7
			c-1,0.1-1.6-0.2-1.8-1.2C370.3,117.7,370,115.6,369.7,113.9z"/>
		<path class="st6" d="M361.5,117c0,1,0.1,2.1,0,3.1c-0.1,1-0.5,1.4-1.3,1.5c-1.1,0.1-1.9-0.5-1.8-1.5c0.1-2.1,0.4-4.2,0.6-6.3
			c0.1-0.8,0.7-1.3,1.4-1.3c0.7,0,1.2,0.6,1.3,1.6c0,1,0,1.9,0,2.9C361.6,117,361.6,117,361.5,117z"/>
		<path class="st4" d="M354.2,27.6c0,1.1-0.4,1.6-1.1,1.8c-0.7,0.1-1.3-0.2-1.6-1c-0.6-2-1.2-4-1.7-6.1c-0.2-0.8,0.3-1.5,1.1-1.7
			c0.9-0.3,1.7,0.1,1.9,1C353.3,23.6,353.7,25.7,354.2,27.6z"/>
		<path class="st4" d="M335.3,38c0,0.9-0.7,1.5-1.6,1.4c-0.4-0.1-0.7-0.3-1-0.6c-1.3-1.4-2.7-2.8-4-4.2c-0.7-0.8-0.7-1.6,0-2.3
			c0.5-0.6,1.8-0.6,2.4,0.2c1.2,1.5,2.4,2.9,3.6,4.3C335.1,37.2,335.3,37.5,335.3,38z"/>
		<path class="st4" d="M407.7,68.2c-0.3,0-0.4,0-0.6,0c-1.2,0-1.9-0.5-1.9-1.3c0-0.8,0.6-1.4,1.8-1.5c1.8-0.2,3.6-0.4,5.5-0.6
			c1.1-0.1,1.7,0.4,1.8,1.3c0.1,1.1-0.4,1.7-1.5,1.8C411.1,68,409.3,68.1,407.7,68.2z"/>
		<path class="st4" d="M405.4,81.1c2.1,0.5,4.2,1,6.4,1.6c0.8,0.2,1.1,1.2,0.8,2c-0.3,0.8-1,1.2-1.8,0.9c-2-0.6-3.9-1.2-5.9-1.9
			c-0.9-0.3-1.2-1-1.1-1.8C404,81.4,404.6,81,405.4,81.1z"/>
		<path class="st4" d="M404.6,57.7c-0.7,0-1.2-0.1-1.4-0.7c-0.2-0.7-0.1-1.3,0.5-1.7c0.3-0.2,0.7-0.4,1-0.5c1.6-0.6,3.1-1.2,4.7-1.7
			c1.2-0.4,2-0.1,2.4,0.8c0.3,0.9-0.1,1.7-1.2,2.1c-1.7,0.6-3.5,1.1-5.2,1.6C405.1,57.6,404.8,57.6,404.6,57.7z"/>
		<path class="st6" d="M351.1,112.4c-0.6,1.9-1.1,4-1.8,6c-0.3,0.9-1,1.2-1.8,1c-0.9-0.2-1.4-0.9-1.2-1.8c0.1-0.5,0.3-0.9,0.4-1.4
			c0.6-1.6,1.1-3.2,1.7-4.7c0.3-0.8,1-1.1,1.7-0.9C350.9,110.9,351.2,111.5,351.1,112.4z"/>
		<path class="st4" d="M367.5,26.7c0.2-2,0.4-3.9,0.6-5.8c0.1-1,0.8-1.5,1.8-1.3c0.9,0.1,1.4,0.8,1.3,1.7c-0.3,1.9-0.6,3.8-0.9,5.7
			c0,0.3-0.1,0.5-0.3,0.8c-0.3,0.5-0.7,0.9-1.3,0.8c-0.7-0.1-1.1-0.5-1.2-1.1C367.5,27.2,367.5,26.8,367.5,26.7z"/>
		<path class="st4" d="M402.7,102.1c-0.4,0-0.7-0.3-1.1-0.5c-1.4-1.1-2.8-2.2-4.1-3.4c-0.2-0.2-0.5-0.4-0.7-0.7
			c-0.3-0.5-0.4-1,0-1.5c0.3-0.5,0.9-0.6,1.4-0.5c0.2,0,0.4,0.1,0.6,0.2c1.7,1.2,3.5,2.4,5.1,3.7c0.8,0.6,0.7,1.7-0.1,2.4
			C403.5,102,403.2,102.1,402.7,102.1z"/>
		<path class="st6" d="M327.1,106.6c-0.5,0-0.9-0.4-1.2-0.9c-0.3-0.5-0.3-1,0.1-1.5c0.2-0.3,0.4-0.5,0.7-0.7
			c1.3-1.2,2.6-2.3,3.9-3.5c0.9-0.8,1.7-0.9,2.3-0.2c0.5,0.6,0.5,1.4-0.3,2.2c-1.3,1.4-2.7,2.8-4.1,4.2
			C328.1,106.4,327.7,106.6,327.1,106.6z"/>
		<path class="st4" d="M331.5,41.9c0,0.9-0.8,1.5-1.7,1.2c-0.3-0.1-0.6-0.3-0.8-0.5c-1.5-1.2-3-2.3-4.4-3.6c-1-0.8-0.9-1.9,0-2.6
			c0.6-0.4,1.2-0.5,1.8,0c1.6,1.4,3.2,2.9,4.7,4.4C331.4,41.2,331.5,41.5,331.5,41.9z"/>
		<path class="st4" d="M402.9,38.3c0,0.5-0.2,0.9-0.6,1.3c-1.6,1.2-3.1,2.5-4.7,3.7c-0.8,0.6-1.5,0.5-2,0c-0.6-0.6-0.5-1.4,0.3-2.1
			c1.5-1.4,3-2.7,4.5-4c0.5-0.4,1.1-0.5,1.6-0.3C402.5,37.2,402.8,37.7,402.9,38.3z"/>
		<path class="st4" d="M325.6,50.5c0,0.9-0.4,1.4-1.1,1.5c-0.4,0-0.7,0-1.1-0.2c-1.7-0.8-3.4-1.6-5.1-2.4c-1-0.5-1.4-1.4-0.9-2.2
			c0.4-0.9,1.3-1.1,2.3-0.6c1.7,0.9,3.3,1.8,5,2.7C325.1,49.7,325.5,50.1,325.6,50.5z"/>
		<path class="st4" d="M321.9,57c-0.1,0-0.3,0-0.4-0.1c-1.9-0.6-3.9-1.2-5.8-1.9c-1.1-0.4-1.3-1.6-0.6-2.5c0.4-0.5,1-0.7,1.6-0.4
			c2,0.7,3.9,1.5,5.8,2.3c0.6,0.3,1,0.8,0.9,1.6C323.3,56.8,322.7,57,321.9,57z"/>
		<path class="st6" d="M374.9,112.4c0-0.8,0.3-1.4,1-1.6c0.7-0.2,1.3,0.1,1.6,0.8c0.7,2,1.5,4.1,2.1,6.1c0.3,0.8-0.3,1.6-1.1,1.9
			c-0.8,0.2-1.6-0.2-1.9-1.1c-0.5-1.6-0.9-3.2-1.4-4.8C375.2,113.2,375,112.7,374.9,112.4z"/>
		<path class="st6" d="M394.5,99.5c0.3,0,0.6,0.1,0.8,0.3c1.6,1.4,3.1,2.8,4.7,4.3c0.6,0.6,0.6,1.2,0.3,1.9
			c-0.4,0.8-1.5,1.1-2.2,0.5c-1.6-1.5-3.1-3.1-4.6-4.8c-0.4-0.4-0.4-1-0.1-1.5C393.5,99.7,393.9,99.5,394.5,99.5z"/>
		<path class="st4" d="M315.6,73.2c-0.8,0-1.5,0-2.3,0c-1,0-1.5-0.6-1.6-1.5c0-0.9,0.5-1.5,1.5-1.5c2.1,0,4.1,0,6.2,0
			c0.9,0,1.5,0.6,1.6,1.3c0,0.7-0.5,1.2-1.5,1.4C318.2,73.1,316.9,73.1,315.6,73.2z"/>
		<path class="st6" d="M364.5,117.1c0-0.9-0.1-1.8-0.1-2.7c0-1.1,0.6-1.9,1.4-1.9c0.7,0,1.3,0.7,1.4,1.7c0.2,1.9,0.3,3.8,0.5,5.6
			c0.1,1.1-0.4,1.7-1.3,1.8c-1.1,0.1-1.7-0.4-1.7-1.6c0-0.5,0-1,0-1.5C364.5,118.1,364.5,117.6,364.5,117.1
			C364.5,117.1,364.5,117.1,364.5,117.1z"/>
		<path class="st8" d="M401.2,91c0.2,0.1,0.5,0.2,0.8,0.3c1.6,0.9,3.2,1.7,4.9,2.6c1,0.6,1.3,1.4,0.8,2.3c-0.4,0.8-1.3,1-2.3,0.5
			c-1.7-1-3.4-2.1-5.1-3.2c-0.7-0.5-0.9-1.2-0.6-1.8C400,91.1,400.5,91,401.2,91z"/>
		<path class="st9" d="M410,70.5c1,0,1.9,0,2.9,0c1.1,0,1.7,0.7,1.6,1.6c-0.1,0.9-0.7,1.5-1.7,1.5c-2-0.1-4-0.2-6-0.4
			c-1-0.1-1.5-0.6-1.4-1.4c0-0.8,0.5-1.2,1.5-1.3C408,70.4,409,70.5,410,70.5C410,70.5,410,70.5,410,70.5z"/>
	</g>
	<g>
		<path class="st4" d="M640.4,23.6c0-1.1,0-2,0-2.9c0-1,0.6-1.6,1.4-1.7c0.9-0.1,1.7,0.6,1.7,1.6c0,2.2-0.1,4.3-0.3,6.5
			c-0.1,0.7-0.6,1.2-1.3,1.2c-0.7,0-1.2-0.5-1.3-1.2C640.4,25.8,640.4,24.6,640.4,23.6z"/>
		<path class="st4" d="M622.5,31.6c0,0.7-0.2,1.1-0.6,1.4c-0.5,0.3-1,0.3-1.5-0.1c-0.2-0.2-0.4-0.4-0.5-0.6c-1-1.7-2-3.4-2.9-5.1
			c-0.5-1-0.3-1.8,0.5-2.2c0.9-0.5,1.7-0.2,2.3,0.8c0.9,1.7,1.7,3.4,2.5,5.1C622.4,31.2,622.4,31.5,622.5,31.6z"/>
		<path class="st4" d="M651.2,28c0.5-2.1,0.9-4.2,1.5-6.3c0.2-0.9,1.1-1.3,1.9-1c0.8,0.2,1.3,0.8,1.1,1.7c-0.5,2.1-1.1,4.2-1.8,6.2
			c-0.3,0.8-1,1.1-1.7,0.9C651.5,29.4,651.1,28.8,651.2,28z"/>
		<path class="st7" d="M632.2,120.9c-1.1,0-1.8-0.7-1.6-1.8c0.4-2,0.8-4,1.3-6c0.2-0.9,1-1.4,1.7-1.2c0.7,0.2,1.2,0.9,1.1,1.8
			c-0.3,2-0.6,4-0.9,5.9C633.6,120.5,633.1,120.9,632.2,120.9z"/>
		<path class="st7" d="M619.8,107.5c-0.1,0.2-0.2,0.5-0.3,0.8c-1,1.7-1.9,3.4-3,5c-0.6,1-1.6,1.2-2.5,0.5c-0.6-0.5-0.8-1.2-0.3-1.9
			c1.1-1.8,2.3-3.5,3.5-5.3c0.4-0.6,1-0.9,1.7-0.6C619.5,106.4,619.8,106.8,619.8,107.5z"/>
		<path class="st4" d="M677.1,33.9c0,0.5-0.2,0.9-0.6,1.3c-1.3,1.3-2.6,2.7-4,4c-0.2,0.2-0.4,0.4-0.6,0.5c-0.6,0.2-1.2,0.2-1.6-0.3
			c-0.5-0.5-0.5-1.1-0.1-1.6c1.4-1.7,2.9-3.4,4.3-5c0.4-0.5,1-0.5,1.6-0.2C676.7,32.8,677,33.2,677.1,33.9z"/>
		<path class="st4" d="M661.5,24.3c0,0.1,0,0.3-0.1,0.5c-0.8,1.8-1.6,3.7-2.4,5.5c-0.4,0.8-1.1,1.1-1.8,0.9c-0.7-0.3-1-1-0.7-1.9
			c0.6-1.9,1.3-3.8,2-5.6c0.3-0.9,1-1.2,1.8-1.1C661.1,22.7,661.5,23.3,661.5,24.3z"/>
		<path class="st4" d="M617.9,34.5c0,0.7-0.3,1.1-0.8,1.4c-0.5,0.2-0.9,0.1-1.4-0.2c-0.2-0.1-0.3-0.3-0.4-0.5
			c-1.2-1.6-2.3-3.1-3.5-4.7c-0.6-0.8-0.5-1.6,0.1-2.2c0.7-0.6,1.7-0.6,2.3,0.2c1.2,1.7,2.3,3.5,3.5,5.3
			C617.9,34.1,617.9,34.4,617.9,34.5z"/>
		<path class="st4" d="M605.2,47.5c-0.1,0-0.4-0.1-0.6-0.2c-1.7-1.1-3.5-2.1-5.2-3.3c-0.8-0.5-0.9-1.2-0.6-2
			c0.4-0.9,1.4-1.3,2.3-0.7c1.7,1.1,3.3,2.4,5,3.6c0.6,0.4,0.8,1,0.5,1.7C606.3,47.2,605.9,47.5,605.2,47.5z"/>
		<path class="st4" d="M684.9,43.4c0,0.6-0.2,1-0.7,1.3c-1.7,1-3.4,2.1-5.1,3.1c-0.8,0.5-1.6,0.3-2-0.3c-0.4-0.6-0.3-1.4,0.5-2
			c1.7-1.2,3.4-2.3,5-3.5C683.6,41.2,684.9,42.2,684.9,43.4z"/>
		<path class="st4" d="M598.3,62.1c-1.8-0.3-3.8-0.7-5.8-1.1c-0.9-0.2-1.4-1-1.2-1.8c0.2-0.9,1-1.4,2-1.2c1.9,0.5,3.9,1,5.8,1.5
			c1,0.3,1.4,0.9,1.2,1.6C600.2,61.8,599.6,62.2,598.3,62.1z"/>
		<path class="st4" d="M592.7,79.4c-1.2,0-1.8-0.4-2-1.3c-0.1-0.9,0.3-1.6,1.3-1.7c2.1-0.3,4.2-0.6,6.3-0.8c0.8-0.1,1.4,0.5,1.5,1.2
			c0.1,0.7-0.3,1.4-1.1,1.6C596.6,78.7,594.5,79,592.7,79.4z"/>
		<path class="st4" d="M685.2,75.8c1.9,0.2,3.8,0.4,5.6,0.7c1.1,0.2,1.5,0.7,1.6,1.5c0,1.1-0.7,1.7-1.9,1.6
			c-1.4-0.2-2.8-0.5-4.1-0.7c-0.5-0.1-1.1-0.2-1.6-0.3c-1-0.2-1.6-0.9-1.4-1.7C683.4,76.2,684.1,75.7,685.2,75.8z"/>
		<path class="st6" d="M599.4,80.8c0.7,0,1.2,0.3,1.4,0.9c0.2,0.7-0.1,1.2-0.6,1.5c-0.3,0.2-0.6,0.3-0.9,0.4
			c-1.7,0.5-3.4,1.1-5.1,1.6c-1.2,0.3-1.9,0-2.2-0.9c-0.3-0.9,0.2-1.9,1.3-2.1c1.8-0.4,3.6-0.9,5.4-1.3
			C598.9,80.9,599.2,80.8,599.4,80.8z"/>
		<path class="st7" d="M682.1,86.2c0.1,0,0.3,0.1,0.5,0.2c1.8,0.7,3.5,1.3,5.3,2.1c1.1,0.4,1.5,1.3,1.1,2.2
			c-0.4,0.9-1.3,1.2-2.3,0.7c-1.7-0.7-3.3-1.5-5-2.3c-0.2-0.1-0.5-0.2-0.7-0.4c-0.5-0.4-0.7-1-0.4-1.6
			C680.8,86.3,681.3,86.1,682.1,86.2z"/>
		<path class="st7" d="M603.7,90.7c0.6,0,1.1,0.3,1.2,0.9c0.2,0.5,0.1,1.1-0.4,1.5c-0.6,0.4-1.2,0.8-1.8,1.2
			c-1.2,0.7-2.4,1.5-3.6,2.2c-1,0.6-1.9,0.3-2.3-0.5c-0.4-0.8-0.2-1.6,0.7-2.2c1.7-0.9,3.4-1.8,5.1-2.7
			C603.1,90.8,603.3,90.7,603.7,90.7z"/>
		<path class="st7" d="M624.5,110.3c0,0.1-0.1,0.4-0.2,0.6c-0.7,1.7-1.4,3.5-2.2,5.2c-0.6,1.2-1.7,1.5-2.6,0.6
			c-0.5-0.5-0.7-1-0.4-1.6c1-1.9,1.9-3.9,2.9-5.8c0.3-0.6,0.9-0.9,1.7-0.6C624.3,108.9,624.5,109.5,624.5,110.3z"/>
		<path class="st4" d="M667,36.4c-0.8,0-1.4-0.7-1.3-1.5c0-0.4,0.3-0.7,0.5-1c1-1.5,2-3.1,3.1-4.6c0.7-1,1.5-1.2,2.3-0.6
			c0.8,0.6,0.9,1.5,0.2,2.4c-1.1,1.5-2.3,3-3.5,4.5C668,36.1,667.6,36.4,667,36.4z"/>
		<path class="st4" d="M627.4,29.6c0,0.6-0.2,1.1-0.7,1.3c-0.6,0.2-1.2,0.1-1.6-0.4c-0.1-0.2-0.2-0.4-0.3-0.5
			c-0.8-1.8-1.6-3.7-2.3-5.5c-0.4-0.9,0-1.6,0.8-2c0.8-0.4,1.7-0.2,2,0.7c0.8,2,1.4,4.1,2.1,6.1C627.4,29.4,627.4,29.5,627.4,29.6z"
			/>
		<path class="st4" d="M685.1,62.8c-1.5,0.1-2-0.2-2.2-0.9c-0.2-0.8,0.3-1.5,1.3-1.7c1.9-0.5,3.8-0.9,5.7-1.4c1.1-0.2,1.9,0.3,2,1.3
			c0.1,0.8-0.3,1.5-1.3,1.7C688.7,62.2,686.7,62.5,685.1,62.8z"/>
		<path class="st4" d="M681,52.7c-0.8,0-1.2-0.3-1.5-0.9c-0.2-0.6,0-1.1,0.4-1.4c0.2-0.2,0.4-0.3,0.7-0.4c1.6-0.9,3.2-1.7,4.9-2.6
			c1.1-0.5,2-0.2,2.4,0.8c0.3,0.8,0,1.5-1.1,2c-1.7,0.8-3.4,1.5-5,2.3C681.5,52.6,681.2,52.7,681,52.7z"/>
		<path class="st4" d="M667,27.1c0,0.1-0.1,0.4-0.2,0.6c-1,1.7-2,3.3-3,5c-0.4,0.6-0.9,1-1.6,0.8c-0.8-0.1-1.3-1.1-0.9-1.9
			c0.9-2,1.9-3.9,2.9-5.8c0.4-0.7,1.1-0.9,1.8-0.6C666.8,25.6,667.1,26.1,667,27.1z"/>
		<path class="st4" d="M637.8,26.1c0,0.1,0,0.6,0,1.1c0,0.8-0.5,1.2-1.2,1.3c-0.7,0.1-1.2-0.3-1.3-1c-0.2-0.6-0.3-1.3-0.4-1.9
			c-0.2-1.3-0.4-2.7-0.6-4c-0.1-0.5-0.2-1,0.1-1.4c0.3-0.6,1.2-1,1.8-0.8c0.7,0.2,1.2,0.8,1.2,1.5C637.5,22.5,637.7,24.1,637.8,26.1
			z"/>
		<path class="st4" d="M592.3,64c1.9,0.2,3.9,0.4,5.8,0.7c1,0.1,1.4,0.7,1.4,1.5c0,0.8-0.6,1.4-1.7,1.3c-1.9-0.2-3.8-0.2-5.7-0.3
			c-0.3,0-0.6-0.1-0.9-0.3c-0.7-0.3-1-1.1-0.8-1.8C590.6,64.4,591.2,64,592.3,64z"/>
		<path class="st7" d="M595.5,91.2c-0.7,0-1.4-0.6-1.5-1.3c-0.2-0.8,0.1-1.4,0.8-1.7c0.7-0.3,1.5-0.6,2.2-0.9c1.3-0.5,2.5-1,3.8-1.4
			c0.8-0.3,1.5,0.1,1.7,0.8c0.3,0.7,0,1.4-0.6,1.7c-2,1-4.1,1.9-6.1,2.8C595.7,91.2,595.6,91.2,595.5,91.2z"/>
		<path class="st6" d="M607.9,96.6c0,0.5-0.2,0.9-0.7,1.2c-1.5,1.2-2.9,2.4-4.4,3.5c-0.9,0.7-1.8,0.6-2.4-0.1
			c-0.6-0.8-0.4-1.7,0.5-2.4c1.6-1.1,3.1-2.3,4.8-3.3C606.8,94.8,607.9,95.3,607.9,96.6z"/>
		<path class="st7" d="M615.4,104.3c0,0.5-0.2,0.9-0.5,1.2c-1.1,1.5-2.2,2.9-3.3,4.4c-0.3,0.5-0.7,0.8-1.3,0.8
			c-0.6,0-1.2-0.2-1.5-0.8c-0.4-0.6-0.3-1.2,0.1-1.7c1.4-1.6,2.8-3.3,4.2-4.9c0.4-0.5,1.1-0.5,1.7-0.2
			C615.2,103.3,615.4,103.8,615.4,104.3z"/>
		<path class="st7" d="M668.9,103.1c0.5,0.1,0.9,0.3,1.2,0.7c1.2,1.4,2.5,2.9,3.7,4.3c0.8,1,0.7,1.8-0.1,2.4
			c-0.8,0.6-1.7,0.5-2.4-0.4c-1.2-1.5-2.3-3.1-3.5-4.7c-0.4-0.5-0.5-1.1-0.2-1.7C667.9,103.3,668.4,103.1,668.9,103.1z"/>
		<path class="st7" d="M669.3,113.1c0,0.5-0.4,1-1.1,1.2c-0.7,0.2-1.4,0.1-1.7-0.5c-1.1-1.8-2.2-3.7-3.2-5.6
			c-0.4-0.8-0.1-1.5,0.5-1.8c0.6-0.3,1.4-0.2,1.9,0.5c0.9,1.3,1.8,2.7,2.7,4c0.2,0.4,0.5,0.7,0.7,1.1
			C669.2,112.3,669.3,112.5,669.3,113.1z"/>
		<path class="st7" d="M663.8,115.8c0,0.7-0.4,1.2-1,1.5c-0.7,0.3-1.5,0.1-1.8-0.6c-0.9-2-1.8-4.1-2.6-6.1c-0.3-0.7,0-1.3,0.7-1.6
			c0.6-0.3,1.3-0.1,1.8,0.6c0.4,0.7,0.8,1.5,1.2,2.3c0.5,0.9,0.9,1.8,1.4,2.7C663.6,114.9,663.8,115.3,663.8,115.8z"/>
		<path class="st7" d="M648.1,113.9c0-1.3,0.4-1.8,1.1-1.9c0.7-0.1,1.4,0.3,1.6,1.1c0.5,2,0.9,4.1,1.3,6.2c0.2,1.1-0.3,1.6-1.2,1.7
			c-1,0.1-1.6-0.2-1.8-1.2C648.7,117.7,648.4,115.6,648.1,113.9z"/>
		<path class="st7" d="M639.9,117c0,1,0.1,2.1,0,3.1c-0.1,1-0.5,1.4-1.3,1.5c-1.1,0.1-1.9-0.5-1.8-1.5c0.1-2.1,0.4-4.2,0.6-6.3
			c0.1-0.8,0.7-1.3,1.4-1.3c0.7,0,1.2,0.6,1.3,1.6c0,1,0,1.9,0,2.9C640,117,640,117,639.9,117z"/>
		<path class="st4" d="M632.5,27.6c0,1.1-0.4,1.6-1.1,1.8c-0.7,0.1-1.3-0.2-1.6-1c-0.6-2-1.2-4-1.7-6.1c-0.2-0.8,0.3-1.5,1.1-1.7
			c0.9-0.3,1.7,0.1,1.9,1C631.7,23.6,632.1,25.7,632.5,27.6z"/>
		<path class="st4" d="M613.7,38c0,0.9-0.7,1.5-1.6,1.4c-0.4-0.1-0.7-0.3-1-0.6c-1.3-1.4-2.7-2.8-4-4.2c-0.7-0.8-0.7-1.6,0-2.3
			c0.5-0.6,1.8-0.6,2.4,0.2c1.2,1.5,2.4,2.9,3.6,4.3C613.5,37.2,613.7,37.5,613.7,38z"/>
		<path class="st4" d="M686.1,68.2c-0.3,0-0.4,0-0.6,0c-1.2,0-1.9-0.5-1.9-1.3c0-0.8,0.6-1.4,1.8-1.5c1.8-0.2,3.6-0.4,5.5-0.6
			c1.1-0.1,1.7,0.4,1.8,1.3c0.1,1.1-0.4,1.7-1.5,1.8C689.4,68,687.7,68.1,686.1,68.2z"/>
		<path class="st4" d="M683.8,81.1c2.1,0.5,4.2,1,6.4,1.6c0.8,0.2,1.1,1.2,0.8,2c-0.3,0.8-1,1.2-1.8,0.9c-2-0.6-3.9-1.2-5.9-1.9
			c-0.9-0.3-1.2-1-1.1-1.8C682.4,81.4,683,81,683.8,81.1z"/>
		<path class="st4" d="M683,57.7c-0.7,0-1.2-0.1-1.4-0.7c-0.2-0.7-0.1-1.3,0.5-1.7c0.3-0.2,0.7-0.4,1-0.5c1.6-0.6,3.1-1.2,4.7-1.7
			c1.2-0.4,2-0.1,2.4,0.8c0.3,0.9-0.1,1.7-1.2,2.1c-1.7,0.6-3.5,1.1-5.2,1.6C683.5,57.6,683.2,57.6,683,57.7z"/>
		<path class="st7" d="M629.5,112.4c-0.6,1.9-1.1,4-1.8,6c-0.3,0.9-1,1.2-1.8,1c-0.9-0.2-1.4-0.9-1.2-1.8c0.1-0.5,0.3-0.9,0.4-1.4
			c0.6-1.6,1.1-3.2,1.7-4.7c0.3-0.8,1-1.1,1.7-0.9C629.3,110.9,629.6,111.5,629.5,112.4z"/>
		<path class="st4" d="M645.9,26.7c0.2-2,0.4-3.9,0.6-5.8c0.1-1,0.8-1.5,1.8-1.3c0.9,0.1,1.4,0.8,1.3,1.7c-0.3,1.9-0.6,3.8-0.9,5.7
			c0,0.3-0.1,0.5-0.3,0.8c-0.3,0.5-0.7,0.9-1.3,0.8c-0.7-0.1-1.1-0.5-1.2-1.1C645.9,27.2,645.9,26.8,645.9,26.7z"/>
		<path class="st7" d="M681.1,102.1c-0.4,0-0.7-0.3-1.1-0.5c-1.4-1.1-2.8-2.2-4.1-3.4c-0.2-0.2-0.5-0.4-0.7-0.7
			c-0.3-0.5-0.4-1,0-1.5c0.3-0.5,0.9-0.6,1.4-0.5c0.2,0,0.4,0.1,0.6,0.2c1.7,1.2,3.5,2.4,5.1,3.7c0.8,0.6,0.7,1.7-0.1,2.4
			C681.9,102,681.6,102.1,681.1,102.1z"/>
		<path class="st7" d="M605.5,106.6c-0.5,0-0.9-0.4-1.2-0.9c-0.3-0.5-0.3-1,0.1-1.5c0.2-0.3,0.4-0.5,0.7-0.7
			c1.3-1.2,2.6-2.3,3.9-3.5c0.9-0.8,1.7-0.9,2.3-0.2c0.5,0.6,0.5,1.4-0.3,2.2c-1.3,1.4-2.7,2.8-4.1,4.2
			C606.4,106.4,606.1,106.6,605.5,106.6z"/>
		<path class="st4" d="M609.9,41.9c0,0.9-0.8,1.5-1.7,1.2c-0.3-0.1-0.6-0.3-0.8-0.5c-1.5-1.2-3-2.3-4.4-3.6c-1-0.8-0.9-1.9,0-2.6
			c0.6-0.4,1.2-0.5,1.8,0c1.6,1.4,3.2,2.9,4.7,4.4C609.8,41.2,609.9,41.5,609.9,41.9z"/>
		<path class="st4" d="M681.3,38.3c0,0.5-0.2,0.9-0.6,1.3c-1.6,1.2-3.1,2.5-4.7,3.7c-0.8,0.6-1.5,0.5-2,0c-0.6-0.6-0.5-1.4,0.3-2.1
			c1.5-1.4,3-2.7,4.5-4c0.5-0.4,1.1-0.5,1.6-0.3C680.9,37.2,681.2,37.7,681.3,38.3z"/>
		<path class="st4" d="M603.9,50.5c0,0.9-0.4,1.4-1.1,1.5c-0.4,0-0.7,0-1.1-0.2c-1.7-0.8-3.4-1.6-5.1-2.4c-1-0.5-1.4-1.4-0.9-2.2
			c0.4-0.9,1.3-1.1,2.3-0.6c1.7,0.9,3.3,1.8,5,2.7C603.5,49.7,603.9,50.1,603.9,50.5z"/>
		<path class="st4" d="M600.3,57c-0.1,0-0.3,0-0.4-0.1c-1.9-0.6-3.9-1.2-5.8-1.9c-1.1-0.4-1.3-1.6-0.6-2.5c0.4-0.5,1-0.7,1.6-0.4
			c2,0.7,3.9,1.5,5.8,2.3c0.6,0.3,1,0.8,0.9,1.6C601.7,56.8,601.1,57,600.3,57z"/>
		<path class="st7" d="M653.3,112.4c0-0.8,0.3-1.4,1-1.6c0.7-0.2,1.3,0.1,1.6,0.8c0.7,2,1.5,4.1,2.1,6.1c0.3,0.8-0.3,1.6-1.1,1.9
			c-0.8,0.2-1.6-0.2-1.9-1.1c-0.5-1.6-0.9-3.2-1.4-4.8C653.5,113.2,653.4,112.7,653.3,112.4z"/>
		<path class="st7" d="M672.9,99.5c0.3,0,0.6,0.1,0.8,0.3c1.6,1.4,3.1,2.8,4.7,4.3c0.6,0.6,0.6,1.2,0.3,1.9
			c-0.4,0.8-1.5,1.1-2.2,0.5c-1.6-1.5-3.1-3.1-4.6-4.8c-0.4-0.4-0.4-1-0.1-1.5C671.9,99.7,672.3,99.5,672.9,99.5z"/>
		<path class="st4" d="M594,73.2c-0.8,0-1.5,0-2.3,0c-1,0-1.5-0.6-1.6-1.5c0-0.9,0.5-1.5,1.5-1.5c2.1,0,4.1,0,6.2,0
			c0.9,0,1.5,0.6,1.6,1.3c0,0.7-0.5,1.2-1.5,1.4C596.6,73.1,595.3,73.1,594,73.2z"/>
		<path class="st7" d="M642.9,117.1c0-0.9-0.1-1.8-0.1-2.7c0-1.1,0.6-1.9,1.4-1.9c0.7,0,1.3,0.7,1.4,1.7c0.2,1.9,0.3,3.8,0.5,5.6
			c0.1,1.1-0.4,1.7-1.3,1.8c-1.1,0.1-1.7-0.4-1.7-1.6c0-0.5,0-1,0-1.5C642.9,118.1,642.9,117.6,642.9,117.1
			C642.9,117.1,642.9,117.1,642.9,117.1z"/>
		<path class="st7" d="M679.6,91c0.2,0.1,0.5,0.2,0.8,0.3c1.6,0.9,3.2,1.7,4.9,2.6c1,0.6,1.3,1.4,0.8,2.3c-0.4,0.8-1.3,1-2.3,0.5
			c-1.7-1-3.4-2.1-5.1-3.2c-0.7-0.5-0.9-1.2-0.6-1.8C678.4,91.1,678.9,91,679.6,91z"/>
		<path class="st9" d="M688.4,70.5c1,0,1.9,0,2.9,0c1.1,0,1.7,0.7,1.6,1.6c-0.1,0.9-0.7,1.5-1.7,1.5c-2-0.1-4-0.2-6-0.4
			c-1-0.1-1.5-0.6-1.4-1.4c0-0.8,0.5-1.2,1.5-1.3C686.4,70.4,687.4,70.5,688.4,70.5C688.4,70.5,688.4,70.5,688.4,70.5z"/>
	</g>
	<g>
		<path class="st4" d="M914.5,23.6c0-1.1,0-2,0-2.9c0-1,0.6-1.6,1.4-1.7c0.9-0.1,1.7,0.6,1.7,1.6c0,2.2-0.1,4.3-0.3,6.5
			c-0.1,0.7-0.6,1.2-1.3,1.2c-0.7,0-1.2-0.5-1.3-1.2C914.6,25.8,914.5,24.6,914.5,23.6z"/>
		<path class="st4" d="M896.6,31.6c0,0.7-0.2,1.1-0.6,1.4c-0.5,0.3-1,0.3-1.5-0.1c-0.2-0.2-0.4-0.4-0.5-0.6c-1-1.7-2-3.4-2.9-5.1
			c-0.5-1-0.3-1.8,0.5-2.2c0.9-0.5,1.7-0.2,2.3,0.8c0.9,1.7,1.7,3.4,2.5,5.1C896.5,31.2,896.6,31.5,896.6,31.6z"/>
		<path class="st4" d="M925.3,28c0.5-2.1,0.9-4.2,1.5-6.3c0.2-0.9,1.1-1.3,1.9-1c0.8,0.2,1.3,0.8,1.1,1.7c-0.5,2.1-1.1,4.2-1.8,6.2
			c-0.3,0.8-1,1.1-1.7,0.9C925.7,29.4,925.3,28.8,925.3,28z"/>
		<path class="st6" d="M906.4,120.9c-1.1,0-1.8-0.7-1.6-1.8c0.4-2,0.8-4,1.3-6c0.2-0.9,1-1.4,1.7-1.2c0.7,0.2,1.2,0.9,1.1,1.8
			c-0.3,2-0.6,4-0.9,5.9C907.8,120.5,907.2,120.9,906.4,120.9z"/>
		<path class="st6" d="M894,107.5c-0.1,0.2-0.2,0.5-0.3,0.8c-1,1.7-1.9,3.4-3,5c-0.6,1-1.6,1.2-2.5,0.5c-0.6-0.5-0.8-1.2-0.3-1.9
			c1.1-1.8,2.3-3.5,3.5-5.3c0.4-0.6,1-0.9,1.7-0.6C893.7,106.4,893.9,106.8,894,107.5z"/>
		<path class="st4" d="M951.2,33.9c0,0.5-0.2,0.9-0.6,1.3c-1.3,1.3-2.6,2.7-4,4c-0.2,0.2-0.4,0.4-0.6,0.5c-0.6,0.2-1.2,0.2-1.6-0.3
			c-0.5-0.5-0.5-1.1-0.1-1.6c1.4-1.7,2.9-3.4,4.3-5c0.4-0.5,1-0.5,1.6-0.2C950.8,32.8,951.2,33.2,951.2,33.9z"/>
		<path class="st4" d="M935.6,24.3c0,0.1,0,0.3-0.1,0.5c-0.8,1.8-1.6,3.7-2.4,5.5c-0.4,0.8-1.1,1.1-1.8,0.9c-0.7-0.3-1-1-0.7-1.9
			c0.6-1.9,1.3-3.8,2-5.6c0.3-0.9,1-1.2,1.8-1.1C935.2,22.7,935.7,23.3,935.6,24.3z"/>
		<path class="st4" d="M892.1,34.5c0,0.7-0.3,1.1-0.8,1.4c-0.5,0.2-0.9,0.1-1.4-0.2c-0.2-0.1-0.3-0.3-0.4-0.5
			c-1.2-1.6-2.3-3.1-3.5-4.7c-0.6-0.8-0.5-1.6,0.1-2.2c0.7-0.6,1.7-0.6,2.3,0.2c1.2,1.7,2.3,3.5,3.5,5.3
			C892,34.1,892,34.4,892.1,34.5z"/>
		<path class="st4" d="M879.3,47.5c-0.1,0-0.4-0.1-0.6-0.2c-1.7-1.1-3.5-2.1-5.2-3.3c-0.8-0.5-0.9-1.2-0.6-2
			c0.4-0.9,1.4-1.3,2.3-0.7c1.7,1.1,3.3,2.4,5,3.6c0.6,0.4,0.8,1,0.5,1.7C880.5,47.2,880,47.5,879.3,47.5z"/>
		<path class="st4" d="M959,43.4c0,0.6-0.2,1-0.7,1.3c-1.7,1-3.4,2.1-5.1,3.1c-0.8,0.5-1.6,0.3-2-0.3c-0.4-0.6-0.3-1.4,0.5-2
			c1.7-1.2,3.4-2.3,5-3.5C957.7,41.2,959.1,42.2,959,43.4z"/>
		<path class="st4" d="M872.4,62.1c-1.8-0.3-3.8-0.7-5.8-1.1c-0.9-0.2-1.4-1-1.2-1.8c0.2-0.9,1-1.4,2-1.2c1.9,0.5,3.9,1,5.8,1.5
			c1,0.3,1.4,0.9,1.2,1.6C874.3,61.8,873.7,62.2,872.4,62.1z"/>
		<path class="st6" d="M865.9,79.2c-1.3,0-1.9-0.4-2.1-1.4c-0.1-0.9,0.3-1.6,1.3-1.8c2.2-0.3,4.3-0.6,6.5-0.8
			c0.8-0.1,1.5,0.5,1.6,1.2c0.1,0.8-0.3,1.4-1.2,1.6C870,78.5,867.8,78.8,865.9,79.2z"/>
		<path class="st6" d="M959.3,75.8c1.9,0.2,3.8,0.4,5.6,0.7c1.1,0.2,1.5,0.7,1.6,1.5c0,1.1-0.7,1.7-1.9,1.6
			c-1.4-0.2-2.8-0.5-4.1-0.7c-0.5-0.1-1.1-0.2-1.6-0.3c-1-0.2-1.6-0.9-1.4-1.7C957.5,76.2,958.3,75.7,959.3,75.8z"/>
		<path class="st6" d="M873.6,80.8c0.7,0,1.2,0.3,1.4,0.9c0.2,0.7-0.1,1.2-0.6,1.5c-0.3,0.2-0.6,0.3-0.9,0.4
			c-1.7,0.5-3.4,1.1-5.1,1.6c-1.2,0.3-1.9,0-2.2-0.9c-0.3-0.9,0.2-1.9,1.3-2.1c1.8-0.4,3.6-0.9,5.4-1.3
			C873.1,80.9,873.3,80.8,873.6,80.8z"/>
		<path class="st6" d="M956.2,86.2c0.1,0,0.3,0.1,0.5,0.2c1.8,0.7,3.5,1.3,5.3,2.1c1.1,0.4,1.5,1.3,1.1,2.2
			c-0.4,0.9-1.3,1.2-2.3,0.7c-1.7-0.7-3.3-1.5-5-2.3c-0.2-0.1-0.5-0.2-0.7-0.4c-0.5-0.4-0.7-1-0.4-1.6
			C954.9,86.3,955.4,86.1,956.2,86.2z"/>
		<path class="st7" d="M877.8,90.7c0.6,0,1.1,0.3,1.2,0.9c0.2,0.5,0.1,1.1-0.4,1.5c-0.6,0.4-1.2,0.8-1.8,1.2
			c-1.2,0.7-2.4,1.5-3.6,2.2c-1,0.6-1.9,0.3-2.3-0.5c-0.4-0.8-0.2-1.6,0.7-2.2c1.7-0.9,3.4-1.8,5.1-2.7
			C877.2,90.8,877.5,90.7,877.8,90.7z"/>
		<path class="st6" d="M898.6,110.3c0,0.1-0.1,0.4-0.2,0.6c-0.7,1.7-1.4,3.5-2.2,5.2c-0.6,1.2-1.7,1.5-2.6,0.6
			c-0.5-0.5-0.7-1-0.4-1.6c1-1.9,1.9-3.9,2.9-5.8c0.3-0.6,0.9-0.9,1.7-0.6C898.4,108.9,898.7,109.5,898.6,110.3z"/>
		<path class="st4" d="M941.1,36.4c-0.8,0-1.4-0.7-1.3-1.5c0-0.4,0.3-0.7,0.5-1c1-1.5,2-3.1,3.1-4.6c0.7-1,1.5-1.2,2.3-0.6
			c0.8,0.6,0.9,1.5,0.2,2.4c-1.1,1.5-2.3,3-3.5,4.5C942.1,36.1,941.7,36.4,941.1,36.4z"/>
		<path class="st4" d="M901.5,29.6c0,0.6-0.2,1.1-0.7,1.3c-0.6,0.2-1.2,0.1-1.6-0.4c-0.1-0.2-0.2-0.4-0.3-0.5
			c-0.8-1.8-1.6-3.7-2.3-5.5c-0.4-0.9,0-1.6,0.8-2c0.8-0.4,1.7-0.2,2,0.7c0.8,2,1.4,4.1,2.1,6.1C901.5,29.4,901.5,29.5,901.5,29.6z"
			/>
		<path class="st4" d="M959.2,62.8c-1.5,0.1-2-0.2-2.2-0.9c-0.2-0.8,0.3-1.5,1.3-1.7c1.9-0.5,3.8-0.9,5.7-1.4c1.1-0.2,1.9,0.3,2,1.3
			c0.1,0.8-0.3,1.5-1.3,1.7C962.8,62.2,960.8,62.5,959.2,62.8z"/>
		<path class="st4" d="M955.1,52.7c-0.8,0-1.2-0.3-1.5-0.9c-0.2-0.6,0-1.1,0.4-1.4c0.2-0.2,0.4-0.3,0.7-0.4c1.6-0.9,3.2-1.7,4.9-2.6
			c1.1-0.5,2-0.2,2.4,0.8c0.3,0.8,0,1.5-1.1,2c-1.7,0.8-3.4,1.5-5,2.3C955.6,52.6,955.3,52.7,955.1,52.7z"/>
		<path class="st4" d="M941.2,27.1c0,0.1-0.1,0.4-0.2,0.6c-1,1.7-2,3.3-3,5c-0.4,0.6-0.9,1-1.6,0.8c-0.8-0.1-1.3-1.1-0.9-1.9
			c0.9-2,1.9-3.9,2.9-5.8c0.4-0.7,1.1-0.9,1.8-0.6C940.9,25.6,941.2,26.1,941.2,27.1z"/>
		<path class="st4" d="M911.9,26.1c0,0.1,0,0.6,0,1.1c0,0.8-0.5,1.2-1.2,1.3c-0.7,0.1-1.2-0.3-1.3-1c-0.2-0.6-0.3-1.3-0.4-1.9
			c-0.2-1.3-0.4-2.7-0.6-4c-0.1-0.5-0.2-1,0.1-1.4c0.3-0.6,1.2-1,1.8-0.8c0.7,0.2,1.2,0.8,1.2,1.5C911.7,22.5,911.8,24.1,911.9,26.1
			z"/>
		<path class="st4" d="M866.4,64c1.9,0.2,3.9,0.4,5.8,0.7c1,0.1,1.4,0.7,1.4,1.5c0,0.8-0.6,1.4-1.7,1.3c-1.9-0.2-3.8-0.2-5.7-0.3
			c-0.3,0-0.6-0.1-0.9-0.3c-0.7-0.3-1-1.1-0.8-1.8C864.7,64.4,865.3,64,866.4,64z"/>
		<path class="st7" d="M869.6,91.2c-0.7,0-1.4-0.6-1.5-1.3c-0.2-0.8,0.1-1.4,0.8-1.7c0.7-0.3,1.5-0.6,2.2-0.9c1.3-0.5,2.5-1,3.8-1.4
			c0.8-0.3,1.5,0.1,1.7,0.8c0.3,0.7,0,1.4-0.6,1.7c-2,1-4.1,1.9-6.1,2.8C869.8,91.2,869.7,91.2,869.6,91.2z"/>
		<path class="st6" d="M882.1,96.6c0,0.5-0.2,0.9-0.7,1.2c-1.5,1.2-2.9,2.4-4.4,3.5c-0.9,0.7-1.8,0.6-2.4-0.1
			c-0.6-0.8-0.4-1.7,0.5-2.4c1.6-1.1,3.1-2.3,4.8-3.3C880.9,94.8,882,95.3,882.1,96.6z"/>
		<path class="st6" d="M889.5,104.3c0,0.5-0.2,0.9-0.5,1.2c-1.1,1.5-2.2,2.9-3.3,4.4c-0.3,0.5-0.7,0.8-1.3,0.8
			c-0.6,0-1.2-0.2-1.5-0.8c-0.4-0.6-0.3-1.2,0.1-1.7c1.4-1.6,2.8-3.3,4.2-4.9c0.4-0.5,1.1-0.5,1.7-0.2
			C889.3,103.3,889.5,103.8,889.5,104.3z"/>
		<path class="st6" d="M943,103.1c0.5,0.1,0.9,0.3,1.2,0.7c1.2,1.4,2.5,2.9,3.7,4.3c0.8,1,0.7,1.8-0.1,2.4c-0.8,0.6-1.7,0.5-2.4-0.4
			c-1.2-1.5-2.3-3.1-3.5-4.7c-0.4-0.5-0.5-1.1-0.2-1.7C942.1,103.3,942.5,103.1,943,103.1z"/>
		<path class="st6" d="M943.4,113.1c0,0.5-0.4,1-1.1,1.2c-0.7,0.2-1.4,0.1-1.7-0.5c-1.1-1.8-2.2-3.7-3.2-5.6
			c-0.4-0.8-0.1-1.5,0.5-1.8c0.6-0.3,1.4-0.2,1.9,0.5c0.9,1.3,1.8,2.7,2.7,4c0.2,0.4,0.5,0.7,0.7,1.1
			C943.3,112.3,943.4,112.5,943.4,113.1z"/>
		<path class="st6" d="M938,115.8c0,0.7-0.4,1.2-1,1.5c-0.7,0.3-1.5,0.1-1.8-0.6c-0.9-2-1.8-4.1-2.6-6.1c-0.3-0.7,0-1.3,0.7-1.6
			c0.6-0.3,1.3-0.1,1.8,0.6c0.4,0.7,0.8,1.5,1.2,2.3c0.5,0.9,0.9,1.8,1.4,2.7C937.8,114.9,938,115.3,938,115.8z"/>
		<path class="st6" d="M922.2,113.9c0-1.3,0.4-1.8,1.1-1.9c0.7-0.1,1.4,0.3,1.6,1.1c0.5,2,0.9,4.1,1.3,6.2c0.2,1.1-0.3,1.6-1.2,1.7
			c-1,0.1-1.6-0.2-1.8-1.2C922.8,117.7,922.5,115.6,922.2,113.9z"/>
		<path class="st6" d="M914.1,117c0,1,0.1,2.1,0,3.1c-0.1,1-0.5,1.4-1.3,1.5c-1.1,0.1-1.9-0.5-1.8-1.5c0.1-2.1,0.4-4.2,0.6-6.3
			c0.1-0.8,0.7-1.3,1.4-1.3c0.7,0,1.2,0.6,1.3,1.6c0,1,0,1.9,0,2.9C914.2,117,914.1,117,914.1,117z"/>
		<path class="st4" d="M906.7,27.6c0,1.1-0.4,1.6-1.1,1.8c-0.7,0.1-1.3-0.2-1.6-1c-0.6-2-1.2-4-1.7-6.1c-0.2-0.8,0.3-1.5,1.1-1.7
			c0.9-0.3,1.7,0.1,1.9,1C905.9,23.6,906.3,25.7,906.7,27.6z"/>
		<path class="st4" d="M887.8,38c0,0.9-0.7,1.5-1.6,1.4c-0.4-0.1-0.7-0.3-1-0.6c-1.3-1.4-2.7-2.8-4-4.2c-0.7-0.8-0.7-1.6,0-2.3
			c0.5-0.6,1.8-0.6,2.4,0.2c1.2,1.5,2.4,2.9,3.6,4.3C887.6,37.2,887.8,37.5,887.8,38z"/>
		<path class="st4" d="M960.2,68.2c-0.3,0-0.4,0-0.6,0c-1.2,0-1.9-0.5-1.9-1.3c0-0.8,0.6-1.4,1.8-1.5c1.8-0.2,3.6-0.4,5.5-0.6
			c1.1-0.1,1.7,0.4,1.8,1.3c0.1,1.1-0.4,1.7-1.5,1.8C963.6,68,961.8,68.1,960.2,68.2z"/>
		<path class="st6" d="M957.9,81.1c2.1,0.5,4.2,1,6.4,1.6c0.8,0.2,1.1,1.2,0.8,2c-0.3,0.8-1,1.2-1.8,0.9c-2-0.6-3.9-1.2-5.9-1.9
			c-0.9-0.3-1.2-1-1.1-1.8C956.5,81.4,957.1,81,957.9,81.1z"/>
		<path class="st4" d="M957.2,57.7c-0.7,0-1.2-0.1-1.4-0.7c-0.2-0.7-0.1-1.3,0.5-1.7c0.3-0.2,0.7-0.4,1-0.5c1.6-0.6,3.1-1.2,4.7-1.7
			c1.2-0.4,2-0.1,2.4,0.8c0.3,0.9-0.1,1.7-1.2,2.1c-1.7,0.6-3.5,1.1-5.2,1.6C957.6,57.6,957.3,57.6,957.2,57.7z"/>
		<path class="st6" d="M903.6,112.4c-0.6,1.9-1.1,4-1.8,6c-0.3,0.9-1,1.2-1.8,1c-0.9-0.2-1.4-0.9-1.2-1.8c0.1-0.5,0.3-0.9,0.4-1.4
			c0.6-1.6,1.1-3.2,1.7-4.7c0.3-0.8,1-1.1,1.7-0.9C903.4,110.9,903.8,111.5,903.6,112.4z"/>
		<path class="st4" d="M920,26.7c0.2-2,0.4-3.9,0.6-5.8c0.1-1,0.8-1.5,1.8-1.3c0.9,0.1,1.4,0.8,1.3,1.7c-0.3,1.9-0.6,3.8-0.9,5.7
			c0,0.3-0.1,0.5-0.3,0.8c-0.3,0.5-0.7,0.9-1.3,0.8c-0.7-0.1-1.1-0.5-1.2-1.1C920,27.2,920,26.8,920,26.7z"/>
		<path class="st6" d="M955.2,102.1c-0.4,0-0.7-0.3-1.1-0.5c-1.4-1.1-2.8-2.2-4.1-3.4c-0.2-0.2-0.5-0.4-0.7-0.7
			c-0.3-0.5-0.4-1,0-1.5c0.3-0.5,0.9-0.6,1.4-0.5c0.2,0,0.4,0.1,0.6,0.2c1.7,1.2,3.5,2.4,5.1,3.7c0.8,0.6,0.7,1.7-0.1,2.4
			C956,102,955.7,102.1,955.2,102.1z"/>
		<path class="st6" d="M879.6,106.6c-0.5,0-0.9-0.4-1.2-0.9c-0.3-0.5-0.3-1,0.1-1.5c0.2-0.3,0.4-0.5,0.7-0.7
			c1.3-1.2,2.6-2.3,3.9-3.5c0.9-0.8,1.7-0.9,2.3-0.2c0.5,0.6,0.5,1.4-0.3,2.2c-1.3,1.4-2.7,2.8-4.1,4.2
			C880.6,106.4,880.2,106.6,879.6,106.6z"/>
		<path class="st4" d="M884,41.9c0,0.9-0.8,1.5-1.7,1.2c-0.3-0.1-0.6-0.3-0.8-0.5c-1.5-1.2-3-2.3-4.4-3.6c-1-0.8-0.9-1.9,0-2.6
			c0.6-0.4,1.2-0.5,1.8,0c1.6,1.4,3.2,2.9,4.7,4.4C884,41.2,884,41.5,884,41.9z"/>
		<path class="st4" d="M955.4,38.3c0,0.5-0.2,0.9-0.6,1.3c-1.6,1.2-3.1,2.5-4.7,3.7c-0.8,0.6-1.5,0.5-2,0c-0.6-0.6-0.5-1.4,0.3-2.1
			c1.5-1.4,3-2.7,4.5-4c0.5-0.4,1.1-0.5,1.6-0.3C955,37.2,955.3,37.7,955.4,38.3z"/>
		<path class="st4" d="M878.1,50.5c0,0.9-0.4,1.4-1.1,1.5c-0.4,0-0.7,0-1.1-0.2c-1.7-0.8-3.4-1.6-5.1-2.4c-1-0.5-1.4-1.4-0.9-2.2
			c0.4-0.9,1.3-1.1,2.3-0.6c1.7,0.9,3.3,1.8,5,2.7C877.6,49.7,878,50.1,878.1,50.5z"/>
		<path class="st4" d="M874.4,57c-0.1,0-0.3,0-0.4-0.1c-1.9-0.6-3.9-1.2-5.8-1.9c-1.1-0.4-1.3-1.6-0.6-2.5c0.4-0.5,1-0.7,1.6-0.4
			c2,0.7,3.9,1.5,5.8,2.3c0.6,0.3,1,0.8,0.9,1.6C875.8,56.8,875.2,57,874.4,57z"/>
		<path class="st6" d="M927.5,112.4c0-0.8,0.3-1.4,1-1.6c0.7-0.2,1.3,0.1,1.6,0.8c0.7,2,1.5,4.1,2.1,6.1c0.3,0.8-0.3,1.6-1.1,1.9
			c-0.8,0.2-1.6-0.2-1.9-1.1c-0.5-1.6-0.9-3.2-1.4-4.8C927.7,113.2,927.6,112.7,927.5,112.4z"/>
		<path class="st6" d="M947,99.5c0.3,0,0.6,0.1,0.8,0.3c1.6,1.4,3.1,2.8,4.7,4.3c0.6,0.6,0.6,1.2,0.3,1.9c-0.4,0.8-1.5,1.1-2.2,0.5
			c-1.6-1.5-3.1-3.1-4.6-4.8c-0.4-0.4-0.4-1-0.1-1.5C946,99.7,946.4,99.5,947,99.5z"/>
		<path class="st6" d="M868.1,73.2c-0.8,0-1.5,0-2.3,0c-1,0-1.5-0.6-1.6-1.5c0-0.9,0.5-1.5,1.5-1.5c2.1,0,4.1,0,6.2,0
			c0.9,0,1.5,0.6,1.6,1.3c0,0.7-0.5,1.2-1.5,1.4C870.7,73.1,869.4,73.1,868.1,73.2z"/>
		<path class="st6" d="M917,117.1c0-0.9-0.1-1.8-0.1-2.7c0-1.1,0.6-1.9,1.4-1.9c0.7,0,1.3,0.7,1.4,1.7c0.2,1.9,0.3,3.8,0.5,5.6
			c0.1,1.1-0.4,1.7-1.3,1.8c-1.1,0.1-1.7-0.4-1.7-1.6c0-0.5,0-1,0-1.5C917,118.1,917,117.6,917,117.1C917,117.1,917,117.1,917,117.1
			z"/>
		<path class="st6" d="M953.7,91c0.2,0.1,0.5,0.2,0.8,0.3c1.6,0.9,3.2,1.7,4.9,2.6c1,0.6,1.3,1.4,0.8,2.3c-0.4,0.8-1.3,1-2.3,0.5
			c-1.7-1-3.4-2.1-5.1-3.2c-0.7-0.5-0.9-1.2-0.6-1.8C952.5,91.1,953,91,953.7,91z"/>
		<path class="st9" d="M962.5,70.5c1,0,1.9,0,2.9,0c1.1,0,1.7,0.7,1.6,1.6c-0.1,0.9-0.7,1.5-1.7,1.5c-2-0.1-4-0.2-6-0.4
			c-1-0.1-1.5-0.6-1.4-1.4c0-0.8,0.5-1.2,1.5-1.3C960.5,70.4,961.5,70.5,962.5,70.5C962.5,70.5,962.5,70.5,962.5,70.5z"/>
	</g>
	<rect x="444.4" y="324.8" class="st0" width="167.6" height="38.3"/>
	<text transform="matrix(1 0 0 1 444.3682 339.9414)" class="st3 st2">HTML / CSS</text>
	<g>
		<path d="M484.2,248.2c1.8,0,3.2,0.5,4.2,1.5c1,1,1.6,2.3,1.6,4.1c0,2-0.6,3.6-1.9,4.7c-1.3,1.1-3.1,1.6-5.4,1.6
			c-2,0-3.7-0.3-4.9-1v-3.3c0.7,0.3,1.4,0.6,2.3,0.9c0.9,0.2,1.7,0.3,2.5,0.3c2.4,0,3.5-1,3.5-2.9c0-1.8-1.2-2.8-3.7-2.8
			c-0.4,0-0.9,0-1.5,0.1s-1,0.2-1.3,0.3l-1.5-0.8l0.7-9.3h9.9v3.3h-6.5l-0.3,3.6l0.4-0.1C482.9,248.3,483.5,248.2,484.2,248.2z"/>
		<path d="M504.8,250.7c0,3.2-0.5,5.5-1.6,7.1c-1,1.5-2.7,2.3-4.8,2.3c-2.1,0-3.7-0.8-4.8-2.4c-1.1-1.6-1.6-3.9-1.6-7
			c0-3.2,0.5-5.6,1.6-7.1c1-1.5,2.6-2.3,4.8-2.3c2.1,0,3.7,0.8,4.8,2.4C504.3,245.3,504.8,247.7,504.8,250.7z M495.9,250.7
			c0,2.2,0.2,3.8,0.6,4.8c0.4,1,1,1.5,2,1.5c0.9,0,1.5-0.5,1.9-1.5s0.6-2.6,0.6-4.8c0-2.2-0.2-3.8-0.6-4.8c-0.4-1-1.1-1.5-1.9-1.5
			c-0.9,0-1.6,0.5-1.9,1.5C496.1,246.9,495.9,248.5,495.9,250.7z"/>
		<path d="M515.2,247.1c0,1.9-0.4,3.4-1.1,4.3c-0.7,1-1.8,1.4-3.3,1.4c-1.4,0-2.4-0.5-3.2-1.5s-1.1-2.4-1.1-4.3
			c0-3.8,1.4-5.7,4.3-5.7c1.4,0,2.5,0.5,3.2,1.5C514.8,243.8,515.2,245.2,515.2,247.1z M509.7,247.1c0,1.1,0.1,1.8,0.3,2.4
			c0.2,0.5,0.5,0.8,0.9,0.8c0.8,0,1.2-1,1.2-3.1c0-2.1-0.4-3.1-1.2-3.1c-0.4,0-0.7,0.3-0.9,0.8C509.8,245.2,509.7,246,509.7,247.1z
			 M523.8,241.6l-10.1,18.3h-3l10.1-18.3H523.8z M528,254.3c0,1.9-0.4,3.3-1.1,4.3c-0.7,1-1.8,1.4-3.3,1.4c-1.4,0-2.4-0.5-3.2-1.5
			s-1.1-2.4-1.1-4.3c0-3.8,1.4-5.7,4.3-5.7c1.4,0,2.5,0.5,3.2,1.5C527.6,251.1,528,252.5,528,254.3z M522.5,254.4
			c0,1.1,0.1,1.8,0.3,2.4c0.2,0.5,0.5,0.8,0.9,0.8c0.8,0,1.2-1,1.2-3.1c0-2.1-0.4-3.1-1.2-3.1c-0.4,0-0.7,0.3-0.9,0.8
			C522.6,252.5,522.5,253.3,522.5,254.4z"/>
	</g>
	<g>
		<path class="st4" d="M496.9,204c0-1.1,0-2,0-2.9c0-1,0.6-1.6,1.4-1.7c0.9-0.1,1.7,0.6,1.7,1.6c0,2.2-0.1,4.3-0.3,6.5
			c-0.1,0.7-0.6,1.2-1.3,1.2c-0.7,0-1.2-0.5-1.3-1.2C497,206.2,497,205,496.9,204z"/>
		<path class="st4" d="M479,212c0,0.7-0.2,1.1-0.6,1.4c-0.5,0.3-1,0.3-1.5-0.1c-0.2-0.2-0.4-0.4-0.5-0.6c-1-1.7-2-3.4-2.9-5.1
			c-0.5-1-0.3-1.8,0.5-2.2c0.9-0.5,1.7-0.2,2.3,0.8c0.9,1.7,1.7,3.4,2.5,5.1C478.9,211.6,479,211.9,479,212z"/>
		<path class="st4" d="M507.7,208.4c0.5-2.1,0.9-4.2,1.5-6.3c0.2-0.9,1.1-1.3,1.9-1c0.8,0.2,1.3,0.8,1.1,1.7
			c-0.5,2.1-1.1,4.2-1.8,6.2c-0.3,0.8-1,1.1-1.7,0.9C508.1,209.8,507.7,209.1,507.7,208.4z"/>
		<path class="st6" d="M488.8,301.3c-1.1,0-1.8-0.7-1.6-1.8c0.4-2,0.8-4,1.3-6c0.2-0.9,1-1.4,1.7-1.2c0.7,0.2,1.2,0.9,1.1,1.8
			c-0.3,2-0.6,4-0.9,5.9C490.2,300.9,489.6,301.3,488.8,301.3z"/>
		<path class="st6" d="M476.4,287.9c-0.1,0.2-0.2,0.5-0.3,0.8c-1,1.7-1.9,3.4-3,5c-0.6,1-1.6,1.2-2.5,0.5c-0.6-0.5-0.8-1.2-0.3-1.9
			c1.1-1.8,2.3-3.5,3.5-5.3c0.4-0.6,1-0.9,1.7-0.6C476.1,286.8,476.3,287.2,476.4,287.9z"/>
		<path class="st4" d="M533.6,214.3c0,0.5-0.2,0.9-0.6,1.3c-1.3,1.3-2.6,2.7-4,4c-0.2,0.2-0.4,0.4-0.6,0.5c-0.6,0.2-1.2,0.2-1.6-0.3
			c-0.5-0.5-0.5-1.1-0.1-1.6c1.4-1.7,2.9-3.4,4.3-5c0.4-0.5,1-0.5,1.6-0.2C533.2,213.2,533.6,213.6,533.6,214.3z"/>
		<path class="st4" d="M518,204.7c0,0.1,0,0.3-0.1,0.5c-0.8,1.8-1.6,3.7-2.4,5.5c-0.4,0.8-1.1,1.1-1.8,0.9c-0.7-0.3-1-1-0.7-1.9
			c0.6-1.9,1.3-3.8,2-5.6c0.3-0.9,1-1.2,1.8-1.1C517.6,203.1,518.1,203.7,518,204.7z"/>
		<path class="st4" d="M474.5,214.9c0,0.7-0.3,1.1-0.8,1.4c-0.5,0.2-0.9,0.1-1.4-0.2c-0.2-0.1-0.3-0.3-0.4-0.5
			c-1.2-1.6-2.3-3.1-3.5-4.7c-0.6-0.8-0.5-1.6,0.1-2.2c0.7-0.6,1.7-0.6,2.3,0.2c1.2,1.7,2.3,3.5,3.5,5.3
			C474.4,214.5,474.4,214.8,474.5,214.9z"/>
		<path class="st4" d="M461.7,227.9c-0.1,0-0.4-0.1-0.6-0.2c-1.7-1.1-3.5-2.1-5.2-3.3c-0.8-0.5-0.9-1.2-0.6-2
			c0.4-0.9,1.4-1.3,2.3-0.7c1.7,1.1,3.3,2.4,5,3.6c0.6,0.4,0.8,1,0.5,1.7C462.9,227.6,462.4,227.9,461.7,227.9z"/>
		<path class="st4" d="M541.4,223.8c0,0.6-0.2,1-0.7,1.3c-1.7,1-3.4,2.1-5.1,3.1c-0.8,0.5-1.6,0.3-2-0.3c-0.4-0.6-0.3-1.4,0.5-2
			c1.7-1.2,3.4-2.3,5-3.5C540.1,221.6,541.5,222.6,541.4,223.8z"/>
		<path class="st4" d="M454.9,242.5c-1.8-0.3-3.8-0.7-5.8-1.1c-0.9-0.2-1.4-1-1.2-1.8c0.2-0.9,1-1.4,2-1.2c1.9,0.5,3.9,1,5.8,1.5
			c1,0.3,1.4,0.9,1.2,1.6C456.7,242.2,456.1,242.6,454.9,242.5z"/>
		<path class="st6" d="M449.1,259.6c-1.2,0-1.7-0.4-1.9-1.4c-0.1-0.9,0.3-1.6,1.2-1.8c1.9-0.3,3.9-0.6,5.9-0.8
			c0.8-0.1,1.3,0.5,1.4,1.2c0.1,0.8-0.3,1.4-1,1.6C452.8,258.8,450.8,259.2,449.1,259.6z"/>
		<path class="st6" d="M541.7,256.2c1.9,0.2,3.8,0.4,5.6,0.7c1.1,0.2,1.5,0.7,1.6,1.5c0,1.1-0.7,1.7-1.9,1.6
			c-1.4-0.2-2.8-0.5-4.1-0.7c-0.5-0.1-1.1-0.2-1.6-0.3c-1-0.2-1.6-0.9-1.4-1.7C539.9,256.6,540.7,256.1,541.7,256.2z"/>
		<path class="st6" d="M456,261.2c0.7,0,1.2,0.3,1.4,0.9c0.2,0.7-0.1,1.2-0.6,1.5c-0.3,0.2-0.6,0.3-0.9,0.4
			c-1.7,0.5-3.4,1.1-5.1,1.6c-1.2,0.3-1.9,0-2.2-0.9c-0.3-0.9,0.2-1.9,1.3-2.1c1.8-0.4,3.6-0.9,5.4-1.3
			C455.5,261.3,455.7,261.2,456,261.2z"/>
		<path class="st6" d="M538.6,266.6c0.1,0,0.3,0.1,0.5,0.2c1.8,0.7,3.5,1.3,5.3,2.1c1.1,0.4,1.5,1.3,1.1,2.2
			c-0.4,0.9-1.3,1.2-2.3,0.7c-1.7-0.7-3.3-1.5-5-2.3c-0.2-0.1-0.5-0.2-0.7-0.4c-0.5-0.4-0.7-1-0.4-1.6
			C537.3,266.7,537.8,266.5,538.6,266.6z"/>
		<path class="st7" d="M460.2,271.1c0.6,0,1.1,0.3,1.2,0.9c0.2,0.5,0.1,1.1-0.4,1.5c-0.6,0.4-1.2,0.8-1.8,1.2
			c-1.2,0.7-2.4,1.5-3.6,2.2c-1,0.6-1.9,0.3-2.3-0.5c-0.4-0.8-0.2-1.6,0.7-2.2c1.7-0.9,3.4-1.8,5.1-2.7
			C459.6,271.2,459.9,271.1,460.2,271.1z"/>
		<path class="st6" d="M481,290.7c0,0.1-0.1,0.4-0.2,0.6c-0.7,1.7-1.4,3.5-2.2,5.2c-0.6,1.2-1.7,1.5-2.6,0.6c-0.5-0.5-0.7-1-0.4-1.6
			c1-1.9,1.9-3.9,2.9-5.8c0.3-0.6,0.9-0.9,1.7-0.6C480.8,289.3,481.1,289.9,481,290.7z"/>
		<path class="st4" d="M523.5,216.8c-0.8,0-1.4-0.7-1.3-1.5c0-0.4,0.3-0.7,0.5-1c1-1.5,2-3.1,3.1-4.6c0.7-1,1.5-1.2,2.3-0.6
			c0.8,0.6,0.9,1.5,0.2,2.4c-1.1,1.5-2.3,3-3.5,4.5C524.6,216.5,524.2,216.8,523.5,216.8z"/>
		<path class="st4" d="M483.9,210c0,0.6-0.2,1.1-0.7,1.3c-0.6,0.2-1.2,0.1-1.6-0.4c-0.1-0.2-0.2-0.4-0.3-0.5
			c-0.8-1.8-1.6-3.7-2.3-5.5c-0.4-0.9,0-1.6,0.8-2c0.8-0.4,1.7-0.2,2,0.7c0.8,2,1.4,4.1,2.1,6.1C483.9,209.8,483.9,209.9,483.9,210z
			"/>
		<path class="st4" d="M541.6,243.2c-1.5,0.1-2-0.2-2.2-0.9c-0.2-0.8,0.3-1.5,1.3-1.7c1.9-0.5,3.8-0.9,5.7-1.4
			c1.1-0.2,1.9,0.3,2,1.3c0.1,0.8-0.3,1.5-1.3,1.7C545.2,242.6,543.2,242.9,541.6,243.2z"/>
		<path class="st4" d="M537.5,233.1c-0.8,0-1.2-0.3-1.5-0.9c-0.2-0.6,0-1.1,0.4-1.4c0.2-0.2,0.4-0.3,0.7-0.4
			c1.6-0.9,3.2-1.7,4.9-2.6c1.1-0.5,2-0.2,2.4,0.8c0.3,0.8,0,1.5-1.1,2c-1.7,0.8-3.4,1.5-5,2.3C538,233,537.7,233.1,537.5,233.1z"/>
		<path class="st4" d="M523.6,207.4c0,0.1-0.1,0.4-0.2,0.6c-1,1.7-2,3.3-3,5c-0.4,0.6-0.9,1-1.6,0.8c-0.8-0.1-1.3-1.1-0.9-1.9
			c0.9-2,1.9-3.9,2.9-5.8c0.4-0.7,1.1-0.9,1.8-0.6C523.3,205.9,523.7,206.5,523.6,207.4z"/>
		<path class="st4" d="M494.4,206.5c0,0.1,0,0.6,0,1.1c0,0.8-0.5,1.2-1.2,1.3c-0.7,0.1-1.2-0.3-1.3-1c-0.2-0.6-0.3-1.3-0.4-1.9
			c-0.2-1.3-0.4-2.7-0.6-4c-0.1-0.5-0.2-1,0.1-1.4c0.3-0.6,1.2-1,1.8-0.8c0.7,0.2,1.2,0.8,1.2,1.5
			C494.1,202.9,494.2,204.5,494.4,206.5z"/>
		<path class="st4" d="M448.8,244.4c1.9,0.2,3.9,0.4,5.8,0.7c1,0.1,1.4,0.7,1.4,1.5c0,0.8-0.6,1.4-1.7,1.3c-1.9-0.2-3.8-0.2-5.7-0.3
			c-0.3,0-0.6-0.1-0.9-0.3c-0.7-0.3-1-1.1-0.8-1.8C447.1,244.7,447.7,244.4,448.8,244.4z"/>
		<path class="st7" d="M452.1,271.6c-0.7,0-1.4-0.6-1.5-1.3c-0.2-0.8,0.1-1.4,0.8-1.7c0.7-0.3,1.5-0.6,2.2-0.9
			c1.3-0.5,2.5-1,3.8-1.4c0.8-0.3,1.5,0.1,1.7,0.8c0.3,0.7,0,1.4-0.6,1.7c-2,1-4.1,1.9-6.1,2.8C452.3,271.6,452.1,271.6,452.1,271.6
			z"/>
		<path class="st6" d="M464.5,277c0,0.5-0.2,0.9-0.7,1.2c-1.5,1.2-2.9,2.4-4.4,3.5c-0.9,0.7-1.8,0.6-2.4-0.1
			c-0.6-0.8-0.4-1.7,0.5-2.4c1.6-1.1,3.1-2.3,4.8-3.3C463.4,275.2,464.5,275.7,464.5,277z"/>
		<path class="st6" d="M471.9,284.7c0,0.5-0.2,0.9-0.5,1.2c-1.1,1.5-2.2,2.9-3.3,4.4c-0.3,0.5-0.7,0.8-1.3,0.8
			c-0.6,0-1.2-0.2-1.5-0.8c-0.4-0.6-0.3-1.2,0.1-1.7c1.4-1.6,2.8-3.3,4.2-4.9c0.4-0.5,1.1-0.5,1.7-0.2
			C471.8,283.7,472,284.1,471.9,284.7z"/>
		<path class="st6" d="M525.4,283.5c0.5,0.1,0.9,0.3,1.2,0.7c1.2,1.4,2.5,2.9,3.7,4.3c0.8,1,0.7,1.8-0.1,2.4
			c-0.8,0.6-1.7,0.5-2.4-0.4c-1.2-1.5-2.3-3.1-3.5-4.7c-0.4-0.5-0.5-1.1-0.2-1.7C524.5,283.7,524.9,283.5,525.4,283.5z"/>
		<path class="st6" d="M525.8,293.5c0,0.5-0.4,1-1.1,1.2c-0.7,0.2-1.4,0.1-1.7-0.5c-1.1-1.8-2.2-3.7-3.2-5.6
			c-0.4-0.8-0.1-1.5,0.5-1.8c0.6-0.3,1.4-0.2,1.9,0.5c0.9,1.3,1.8,2.7,2.7,4c0.2,0.4,0.5,0.7,0.7,1.1
			C525.7,292.6,525.8,292.9,525.8,293.5z"/>
		<path class="st6" d="M520.4,296.2c0,0.7-0.4,1.2-1,1.5c-0.7,0.3-1.5,0.1-1.8-0.6c-0.9-2-1.8-4.1-2.6-6.1c-0.3-0.7,0-1.3,0.7-1.6
			c0.6-0.3,1.3-0.1,1.8,0.6c0.4,0.7,0.8,1.5,1.2,2.3c0.5,0.9,0.9,1.8,1.4,2.7C520.2,295.3,520.4,295.7,520.4,296.2z"/>
		<path class="st6" d="M504.7,294.3c0-1.3,0.4-1.8,1.1-1.9c0.7-0.1,1.4,0.3,1.6,1.1c0.5,2,0.9,4.1,1.3,6.2c0.2,1.1-0.3,1.6-1.2,1.7
			c-1,0.1-1.6-0.2-1.8-1.2C505.2,298.1,504.9,296,504.7,294.3z"/>
		<path class="st6" d="M496.5,297.4c0,1,0.1,2.1,0,3.1c-0.1,1-0.5,1.4-1.3,1.5c-1.1,0.1-1.9-0.5-1.8-1.5c0.1-2.1,0.4-4.2,0.6-6.3
			c0.1-0.8,0.7-1.3,1.4-1.3c0.7,0,1.2,0.6,1.3,1.6c0,1,0,1.9,0,2.9C496.6,297.4,496.5,297.4,496.5,297.4z"/>
		<path class="st4" d="M489.1,208c0,1.1-0.4,1.6-1.1,1.8c-0.7,0.1-1.3-0.2-1.6-1c-0.6-2-1.2-4-1.7-6.1c-0.2-0.8,0.3-1.5,1.1-1.7
			c0.9-0.3,1.7,0.1,1.9,1C488.3,204,488.7,206.1,489.1,208z"/>
		<path class="st4" d="M470.3,218.4c0,0.9-0.7,1.5-1.6,1.4c-0.4-0.1-0.7-0.3-1-0.6c-1.3-1.4-2.7-2.8-4-4.2c-0.7-0.8-0.7-1.6,0-2.3
			c0.5-0.6,1.8-0.6,2.4,0.2c1.2,1.5,2.4,2.9,3.6,4.3C470,217.5,470.3,217.9,470.3,218.4z"/>
		<path class="st4" d="M542.7,248.6c-0.3,0-0.4,0-0.6,0c-1.2,0-1.9-0.5-1.9-1.3c0-0.8,0.6-1.4,1.8-1.5c1.8-0.2,3.6-0.4,5.5-0.6
			c1.1-0.1,1.7,0.4,1.8,1.3c0.1,1.1-0.4,1.7-1.5,1.8C546,248.4,544.3,248.4,542.7,248.6z"/>
		<path class="st6" d="M540.3,261.4c2.1,0.5,4.2,1,6.4,1.6c0.8,0.2,1.1,1.2,0.8,2c-0.3,0.8-1,1.2-1.8,0.9c-2-0.6-3.9-1.2-5.9-1.9
			c-0.9-0.3-1.2-1-1.1-1.8C538.9,261.8,539.5,261.4,540.3,261.4z"/>
		<path class="st4" d="M539.6,238c-0.7,0-1.2-0.1-1.4-0.7c-0.2-0.7-0.1-1.3,0.5-1.7c0.3-0.2,0.7-0.4,1-0.5c1.6-0.6,3.1-1.2,4.7-1.7
			c1.2-0.4,2-0.1,2.4,0.8c0.3,0.9-0.1,1.7-1.2,2.1c-1.7,0.6-3.5,1.1-5.2,1.6C540,238,539.8,238,539.6,238z"/>
		<path class="st6" d="M486,292.8c-0.6,1.9-1.1,4-1.8,6c-0.3,0.9-1,1.2-1.8,1c-0.9-0.2-1.4-0.9-1.2-1.8c0.1-0.5,0.3-0.9,0.4-1.4
			c0.6-1.6,1.1-3.2,1.7-4.7c0.3-0.8,1-1.1,1.7-0.9C485.8,291.3,486.2,291.9,486,292.8z"/>
		<path class="st4" d="M502.4,207.1c0.2-2,0.4-3.9,0.6-5.8c0.1-1,0.8-1.5,1.8-1.3c0.9,0.1,1.4,0.8,1.3,1.7c-0.3,1.9-0.6,3.8-0.9,5.7
			c0,0.3-0.1,0.5-0.3,0.8c-0.3,0.5-0.7,0.9-1.3,0.8c-0.7-0.1-1.1-0.5-1.2-1.1C502.4,207.6,502.4,207.2,502.4,207.1z"/>
		<path class="st6" d="M537.7,282.5c-0.4,0-0.7-0.3-1.1-0.5c-1.4-1.1-2.8-2.2-4.1-3.4c-0.2-0.2-0.5-0.4-0.7-0.7
			c-0.3-0.5-0.4-1,0-1.5c0.3-0.5,0.9-0.6,1.4-0.5c0.2,0,0.4,0.1,0.6,0.2c1.7,1.2,3.5,2.4,5.1,3.7c0.8,0.6,0.7,1.7-0.1,2.4
			C538.5,282.4,538.1,282.5,537.7,282.5z"/>
		<path class="st6" d="M462,287c-0.5,0-0.9-0.4-1.2-0.9c-0.3-0.5-0.3-1,0.1-1.5c0.2-0.3,0.4-0.5,0.7-0.7c1.3-1.2,2.6-2.3,3.9-3.5
			c0.9-0.8,1.7-0.9,2.3-0.2c0.5,0.6,0.5,1.4-0.3,2.2c-1.3,1.4-2.7,2.8-4.1,4.2C463,286.7,462.6,287,462,287z"/>
		<path class="st4" d="M466.5,222.3c0,0.9-0.8,1.5-1.7,1.2c-0.3-0.1-0.6-0.3-0.8-0.5c-1.5-1.2-3-2.3-4.4-3.6c-1-0.8-0.9-1.9,0-2.6
			c0.6-0.4,1.2-0.5,1.8,0c1.6,1.4,3.2,2.9,4.7,4.4C466.4,221.5,466.5,221.9,466.5,222.3z"/>
		<path class="st4" d="M537.8,218.7c0,0.5-0.2,0.9-0.6,1.3c-1.6,1.2-3.1,2.5-4.7,3.7c-0.8,0.6-1.5,0.5-2,0c-0.6-0.6-0.5-1.4,0.3-2.1
			c1.5-1.4,3-2.7,4.5-4c0.5-0.4,1.1-0.5,1.6-0.3C537.5,217.6,537.8,218.1,537.8,218.7z"/>
		<path class="st4" d="M460.5,230.9c0,0.9-0.4,1.4-1.1,1.5c-0.4,0-0.7,0-1.1-0.2c-1.7-0.8-3.4-1.6-5.1-2.4c-1-0.5-1.4-1.4-0.9-2.2
			c0.4-0.9,1.3-1.1,2.3-0.6c1.7,0.9,3.3,1.8,5,2.7C460.1,230.1,460.4,230.5,460.5,230.9z"/>
		<path class="st4" d="M456.8,237.4c-0.1,0-0.3,0-0.4-0.1c-1.9-0.6-3.9-1.2-5.8-1.9c-1.1-0.4-1.3-1.6-0.6-2.5c0.4-0.5,1-0.7,1.6-0.4
			c2,0.7,3.9,1.5,5.8,2.3c0.6,0.3,1,0.8,0.9,1.6C458.2,237.1,457.6,237.4,456.8,237.4z"/>
		<path class="st6" d="M509.9,292.7c0-0.8,0.3-1.4,1-1.6c0.7-0.2,1.3,0.1,1.6,0.8c0.7,2,1.5,4.1,2.1,6.1c0.3,0.8-0.3,1.6-1.1,1.9
			c-0.8,0.2-1.6-0.2-1.9-1.1c-0.5-1.6-0.9-3.2-1.4-4.8C510.1,293.6,510,293.1,509.9,292.7z"/>
		<path class="st6" d="M529.4,279.9c0.3,0,0.6,0.1,0.8,0.3c1.6,1.4,3.1,2.8,4.7,4.3c0.6,0.6,0.6,1.2,0.3,1.9
			c-0.4,0.8-1.5,1.1-2.2,0.5c-1.6-1.5-3.1-3.1-4.6-4.8c-0.4-0.4-0.4-1-0.1-1.5C528.4,280.1,528.8,279.9,529.4,279.9z"/>
		<path class="st6" d="M450.5,253.6c-0.8,0-1.5,0-2.3,0c-1,0-1.5-0.6-1.6-1.5c0-0.9,0.5-1.5,1.5-1.5c2.1,0,4.1,0,6.2,0
			c0.9,0,1.5,0.6,1.6,1.3c0,0.7-0.5,1.2-1.5,1.4C453.1,253.5,451.8,253.5,450.5,253.6z"/>
		<path class="st6" d="M499.4,297.5c0-0.9-0.1-1.8-0.1-2.7c0-1.1,0.6-1.9,1.4-1.9c0.7,0,1.3,0.7,1.4,1.7c0.2,1.9,0.3,3.8,0.5,5.6
			c0.1,1.1-0.4,1.7-1.3,1.8c-1.1,0.1-1.7-0.4-1.7-1.6c0-0.5,0-1,0-1.5C499.4,298.5,499.4,298,499.4,297.5
			C499.4,297.5,499.4,297.5,499.4,297.5z"/>
		<path class="st6" d="M536.1,271.4c0.2,0.1,0.5,0.2,0.8,0.3c1.6,0.9,3.2,1.7,4.9,2.6c1,0.6,1.3,1.4,0.8,2.3c-0.4,0.8-1.3,1-2.3,0.5
			c-1.7-1-3.4-2.1-5.1-3.2c-0.7-0.5-0.9-1.2-0.6-1.8C534.9,271.5,535.4,271.4,536.1,271.4z"/>
		<path class="st9" d="M544.9,250.9c1,0,1.9,0,2.9,0c1.1,0,1.7,0.7,1.6,1.6c-0.1,0.9-0.7,1.5-1.7,1.5c-2-0.1-4-0.2-6-0.4
			c-1-0.1-1.5-0.6-1.4-1.4c0-0.8,0.5-1.2,1.5-1.3C542.9,250.8,543.9,250.9,544.9,250.9C544.9,250.9,544.9,250.9,544.9,250.9z"/>
	</g>
	<rect x="785.3" y="324.8" class="st0" width="52.6" height="38.3"/>
	<text transform="matrix(1 0 0 1 785.2539 339.9414)" class="st3 st2">SEO</text>
	<rect x="136.2" y="324.8" class="st0" width="190.3" height="38.3"/>
	<text transform="matrix(1 0 0 1 136.1504 339.9414)"><tspan x="0" y="0" class="st1 st2">Google </tspan><tspan x="70.7" y="0" class="st3 st2">Adwords</tspan></text>
	<g>
		<path d="M356.8,62.1L350,78h-4.4l6.8-14.9h-8.7v-3.2h13.1V62.1z"/>
		<path d="M359.2,69.1l1.1-9.3H371v3.3h-7.2l-0.4,3.6c0.3-0.2,0.7-0.3,1.2-0.5c0.5-0.1,1-0.2,1.4-0.2c1.8,0,3.2,0.5,4.2,1.6
			c1,1.1,1.5,2.6,1.5,4.5c0,1.2-0.3,2.2-0.8,3.2c-0.5,0.9-1.3,1.7-2.2,2.2s-2.1,0.8-3.3,0.8c-1.1,0-2.2-0.2-3.2-0.7
			s-1.8-1.1-2.3-1.9c-0.6-0.8-0.8-1.7-0.8-2.8h4.2c0,0.7,0.3,1.2,0.6,1.6c0.4,0.4,0.9,0.6,1.5,0.6c1.4,0,2.1-1,2.1-3.1
			c0-1.9-0.9-2.9-2.6-2.9c-1,0-1.7,0.3-2.2,0.9L359.2,69.1z"/>
		<path d="M373.8,63.3c0-1.1,0.4-2,1.1-2.7c0.7-0.7,1.7-1,2.9-1c1.2,0,2.2,0.3,3,1c0.7,0.7,1.1,1.6,1.1,2.8v0.9c0,1.1-0.4,2-1.1,2.7
			c-0.7,0.7-1.7,1-2.9,1c-1.2,0-2.2-0.3-3-1c-0.7-0.7-1.1-1.6-1.1-2.8V63.3z M376.5,64.3c0,0.4,0.1,0.8,0.4,1c0.2,0.3,0.6,0.4,1,0.4
			c0.9,0,1.3-0.6,1.3-1.7v-0.7c0-0.4-0.1-0.8-0.3-1.1c-0.2-0.3-0.6-0.4-1-0.4c-0.4,0-0.7,0.1-1,0.4c-0.2,0.3-0.4,0.6-0.4,1.1V64.3z
			 M378.7,76.6l-2-1l8.9-14.2l2,1L378.7,76.6z M382.4,73.5c0-1.1,0.4-2,1.1-2.7c0.7-0.7,1.7-1,2.9-1c1.2,0,2.2,0.3,3,1
			c0.7,0.7,1.1,1.6,1.1,2.8v0.9c0,1.1-0.4,2-1.1,2.7c-0.7,0.7-1.7,1-2.9,1c-1.2,0-2.2-0.3-3-1c-0.7-0.7-1.1-1.6-1.1-2.8V73.5z
			 M385.1,74.5c0,0.4,0.1,0.7,0.4,1c0.3,0.3,0.6,0.4,1,0.4c0.8,0,1.2-0.4,1.3-1.1l0-1.3c0-0.4-0.1-0.8-0.4-1.1
			c-0.2-0.3-0.6-0.4-1-0.4c-0.4,0-0.7,0.1-1,0.4c-0.2,0.3-0.4,0.6-0.4,1V74.5z"/>
	</g>
	<g>
		<path class="st4" d="M208.6,204c0-1.1,0-2,0-2.9c0-1,0.6-1.6,1.4-1.7c0.9-0.1,1.7,0.6,1.7,1.6c0,2.2-0.1,4.3-0.3,6.5
			c-0.1,0.7-0.6,1.2-1.3,1.2c-0.7,0-1.2-0.5-1.3-1.2C208.7,206.2,208.6,205,208.6,204z"/>
		<path class="st4" d="M190.7,212c0,0.7-0.2,1.1-0.6,1.4c-0.5,0.3-1,0.3-1.5-0.1c-0.2-0.2-0.4-0.4-0.5-0.6c-1-1.7-2-3.4-2.9-5.1
			c-0.5-1-0.3-1.8,0.5-2.2c0.9-0.5,1.7-0.2,2.3,0.8c0.9,1.7,1.7,3.4,2.5,5.1C190.6,211.6,190.7,211.9,190.7,212z"/>
		<path class="st4" d="M219.4,208.4c0.5-2.1,0.9-4.2,1.5-6.3c0.2-0.9,1.1-1.3,1.9-1c0.8,0.2,1.3,0.8,1.1,1.7
			c-0.5,2.1-1.1,4.2-1.8,6.2c-0.3,0.8-1,1.1-1.7,0.9C219.8,209.8,219.3,209.1,219.4,208.4z"/>
		<path class="st6" d="M200.4,301.3c-1.1,0-1.8-0.7-1.6-1.8c0.4-2,0.8-4,1.3-6c0.2-0.9,1-1.4,1.7-1.2c0.7,0.2,1.2,0.9,1.1,1.8
			c-0.3,2-0.6,4-0.9,5.9C201.8,300.9,201.3,301.3,200.4,301.3z"/>
		<path class="st6" d="M188,287.9c-0.1,0.2-0.2,0.5-0.3,0.8c-1,1.7-1.9,3.4-3,5c-0.6,1-1.6,1.2-2.5,0.5c-0.6-0.5-0.8-1.2-0.3-1.9
			c1.1-1.8,2.3-3.5,3.5-5.3c0.4-0.6,1-0.9,1.7-0.6C187.8,286.8,188,287.2,188,287.9z"/>
		<path class="st4" d="M245.3,214.3c0,0.5-0.2,0.9-0.6,1.3c-1.3,1.3-2.6,2.7-4,4c-0.2,0.2-0.4,0.4-0.6,0.5c-0.6,0.2-1.2,0.2-1.6-0.3
			c-0.5-0.5-0.5-1.1-0.1-1.6c1.4-1.7,2.9-3.4,4.3-5c0.4-0.5,1-0.5,1.6-0.2C244.9,213.2,245.2,213.6,245.3,214.3z"/>
		<path class="st4" d="M229.7,204.7c0,0.1,0,0.3-0.1,0.5c-0.8,1.8-1.6,3.7-2.4,5.5c-0.4,0.8-1.1,1.1-1.8,0.9c-0.7-0.3-1-1-0.7-1.9
			c0.6-1.9,1.3-3.8,2-5.6c0.3-0.9,1-1.2,1.8-1.1C229.3,203.1,229.7,203.7,229.7,204.7z"/>
		<path class="st4" d="M186.1,214.9c0,0.7-0.3,1.1-0.8,1.4c-0.5,0.2-0.9,0.1-1.4-0.2c-0.2-0.1-0.3-0.3-0.4-0.5
			c-1.2-1.6-2.3-3.1-3.5-4.7c-0.6-0.8-0.5-1.6,0.1-2.2c0.7-0.6,1.7-0.6,2.3,0.2c1.2,1.7,2.3,3.5,3.5,5.3
			C186.1,214.5,186.1,214.8,186.1,214.9z"/>
		<path class="st4" d="M173.4,227.9c-0.1,0-0.4-0.1-0.6-0.2c-1.7-1.1-3.5-2.1-5.2-3.3c-0.8-0.5-0.9-1.2-0.6-2
			c0.4-0.9,1.4-1.3,2.3-0.7c1.7,1.1,3.3,2.4,5,3.6c0.6,0.4,0.8,1,0.5,1.7C174.6,227.6,174.1,227.9,173.4,227.9z"/>
		<path class="st4" d="M253.1,223.8c0,0.6-0.2,1-0.7,1.3c-1.7,1-3.4,2.1-5.1,3.1c-0.8,0.5-1.6,0.3-2-0.3c-0.4-0.6-0.3-1.4,0.5-2
			c1.7-1.2,3.4-2.3,5-3.5C251.8,221.6,253.2,222.6,253.1,223.8z"/>
		<path class="st4" d="M166.5,242.5c-1.8-0.3-3.8-0.7-5.8-1.1c-0.9-0.2-1.4-1-1.2-1.8c0.2-0.9,1-1.4,2-1.2c1.9,0.5,3.9,1,5.8,1.5
			c1,0.3,1.4,0.9,1.2,1.6C168.4,242.2,167.8,242.6,166.5,242.5z"/>
		<path class="st4" d="M160.9,259.7c-1.2,0-1.8-0.4-2-1.3c-0.1-0.9,0.3-1.6,1.3-1.7c2.1-0.3,4.2-0.6,6.3-0.8
			c0.8-0.1,1.4,0.5,1.5,1.2c0.1,0.7-0.3,1.4-1.1,1.6C164.8,259.1,162.7,259.4,160.9,259.7z"/>
		<path class="st4" d="M253.4,256.2c1.9,0.2,3.8,0.4,5.6,0.7c1.1,0.2,1.5,0.7,1.6,1.5c0,1.1-0.7,1.7-1.9,1.6
			c-1.4-0.2-2.8-0.5-4.1-0.7c-0.5-0.1-1.1-0.2-1.6-0.3c-1-0.2-1.6-0.9-1.4-1.7C251.6,256.6,252.3,256.1,253.4,256.2z"/>
		<path class="st6" d="M167.7,261.2c0.7,0,1.2,0.3,1.4,0.9c0.2,0.7-0.1,1.2-0.6,1.5c-0.3,0.2-0.6,0.3-0.9,0.4
			c-1.7,0.5-3.4,1.1-5.1,1.6c-1.2,0.3-1.9,0-2.2-0.9c-0.3-0.9,0.2-1.9,1.3-2.1c1.8-0.4,3.6-0.9,5.4-1.3
			C167.1,261.3,167.4,261.2,167.7,261.2z"/>
		<path class="st4" d="M250.3,266.6c0.1,0,0.3,0.1,0.5,0.2c1.8,0.7,3.5,1.3,5.3,2.1c1.1,0.4,1.5,1.3,1.1,2.2
			c-0.4,0.9-1.3,1.2-2.3,0.7c-1.7-0.7-3.3-1.5-5-2.3c-0.2-0.1-0.5-0.2-0.7-0.4c-0.5-0.4-0.7-1-0.4-1.6
			C249,266.7,249.5,266.5,250.3,266.6z"/>
		<path class="st7" d="M171.9,271.1c0.6,0,1.1,0.3,1.2,0.9c0.2,0.5,0.1,1.1-0.4,1.5c-0.6,0.4-1.2,0.8-1.8,1.2
			c-1.2,0.7-2.4,1.5-3.6,2.2c-1,0.6-1.9,0.3-2.3-0.5c-0.4-0.8-0.2-1.6,0.7-2.2c1.7-0.9,3.4-1.8,5.1-2.7
			C171.3,271.2,171.6,271.1,171.9,271.1z"/>
		<path class="st6" d="M192.7,290.7c0,0.1-0.1,0.4-0.2,0.6c-0.7,1.7-1.4,3.5-2.2,5.2c-0.6,1.2-1.7,1.5-2.6,0.6
			c-0.5-0.5-0.7-1-0.4-1.6c1-1.9,1.9-3.9,2.9-5.8c0.3-0.6,0.9-0.9,1.7-0.6C192.5,289.3,192.7,289.9,192.7,290.7z"/>
		<path class="st4" d="M235.2,216.8c-0.8,0-1.4-0.7-1.3-1.5c0-0.4,0.3-0.7,0.5-1c1-1.5,2-3.1,3.1-4.6c0.7-1,1.5-1.2,2.3-0.6
			c0.8,0.6,0.9,1.5,0.2,2.4c-1.1,1.5-2.3,3-3.5,4.5C236.2,216.5,235.8,216.8,235.2,216.8z"/>
		<path class="st4" d="M195.6,210c0,0.6-0.2,1.1-0.7,1.3c-0.6,0.2-1.2,0.1-1.6-0.4c-0.1-0.2-0.2-0.4-0.3-0.5
			c-0.8-1.8-1.6-3.7-2.3-5.5c-0.4-0.9,0-1.6,0.8-2c0.8-0.4,1.7-0.2,2,0.7c0.8,2,1.4,4.1,2.1,6.1C195.6,209.8,195.6,209.9,195.6,210z
			"/>
		<path class="st4" d="M253.3,243.2c-1.5,0.1-2-0.2-2.2-0.9c-0.2-0.8,0.3-1.5,1.3-1.7c1.9-0.5,3.8-0.9,5.7-1.4
			c1.1-0.2,1.9,0.3,2,1.3c0.1,0.8-0.3,1.5-1.3,1.7C256.9,242.6,254.9,242.9,253.3,243.2z"/>
		<path class="st4" d="M249.2,233.1c-0.8,0-1.2-0.3-1.5-0.9c-0.2-0.6,0-1.1,0.4-1.4c0.2-0.2,0.4-0.3,0.7-0.4
			c1.6-0.9,3.2-1.7,4.9-2.6c1.1-0.5,2-0.2,2.4,0.8c0.3,0.8,0,1.5-1.1,2c-1.7,0.8-3.4,1.5-5,2.3C249.7,233,249.4,233.1,249.2,233.1z"
			/>
		<path class="st4" d="M235.2,207.4c0,0.1-0.1,0.4-0.2,0.6c-1,1.7-2,3.3-3,5c-0.4,0.6-0.9,1-1.6,0.8c-0.8-0.1-1.3-1.1-0.9-1.9
			c0.9-2,1.9-3.9,2.9-5.8c0.4-0.7,1.1-0.9,1.8-0.6C235,205.9,235.3,206.5,235.2,207.4z"/>
		<path class="st4" d="M206,206.5c0,0.1,0,0.6,0,1.1c0,0.8-0.5,1.2-1.2,1.3c-0.7,0.1-1.2-0.3-1.3-1c-0.2-0.6-0.3-1.3-0.4-1.9
			c-0.2-1.3-0.4-2.7-0.6-4c-0.1-0.5-0.2-1,0.1-1.4c0.3-0.6,1.2-1,1.8-0.8c0.7,0.2,1.2,0.8,1.2,1.5
			C205.7,202.9,205.9,204.5,206,206.5z"/>
		<path class="st4" d="M160.5,244.4c1.9,0.2,3.9,0.4,5.8,0.7c1,0.1,1.4,0.7,1.4,1.5c0,0.8-0.6,1.4-1.7,1.3c-1.9-0.2-3.8-0.2-5.7-0.3
			c-0.3,0-0.6-0.1-0.9-0.3c-0.7-0.3-1-1.1-0.8-1.8C158.8,244.7,159.4,244.4,160.5,244.4z"/>
		<path class="st7" d="M163.7,271.6c-0.7,0-1.4-0.6-1.5-1.3c-0.2-0.8,0.1-1.4,0.8-1.7c0.7-0.3,1.5-0.6,2.2-0.9
			c1.3-0.5,2.5-1,3.8-1.4c0.8-0.3,1.5,0.1,1.7,0.8c0.3,0.7,0,1.4-0.6,1.7c-2,1-4.1,1.9-6.1,2.8C163.9,271.6,163.8,271.6,163.7,271.6
			z"/>
		<path class="st6" d="M176.2,277c0,0.5-0.2,0.9-0.7,1.2c-1.5,1.2-2.9,2.4-4.4,3.5c-0.9,0.7-1.8,0.6-2.4-0.1
			c-0.6-0.8-0.4-1.7,0.5-2.4c1.6-1.1,3.1-2.3,4.8-3.3C175,275.2,176.1,275.7,176.2,277z"/>
		<path class="st6" d="M183.6,284.7c0,0.5-0.2,0.9-0.5,1.2c-1.1,1.5-2.2,2.9-3.3,4.4c-0.3,0.5-0.7,0.8-1.3,0.8
			c-0.6,0-1.2-0.2-1.5-0.8c-0.4-0.6-0.3-1.2,0.1-1.7c1.4-1.6,2.8-3.3,4.2-4.9c0.4-0.5,1.1-0.5,1.7-0.2
			C183.4,283.7,183.6,284.1,183.6,284.7z"/>
		<path class="st6" d="M237.1,283.5c0.5,0.1,0.9,0.3,1.2,0.7c1.2,1.4,2.5,2.9,3.7,4.3c0.8,1,0.7,1.8-0.1,2.4
			c-0.8,0.6-1.7,0.5-2.4-0.4c-1.2-1.5-2.3-3.1-3.5-4.7c-0.4-0.5-0.5-1.1-0.2-1.7C236.2,283.7,236.6,283.5,237.1,283.5z"/>
		<path class="st6" d="M237.5,293.5c0,0.5-0.4,1-1.1,1.2c-0.7,0.2-1.4,0.1-1.7-0.5c-1.1-1.8-2.2-3.7-3.2-5.6
			c-0.4-0.8-0.1-1.5,0.5-1.8c0.6-0.3,1.4-0.2,1.9,0.5c0.9,1.3,1.8,2.7,2.7,4c0.2,0.4,0.5,0.7,0.7,1.1
			C237.4,292.6,237.5,292.9,237.5,293.5z"/>
		<path class="st7" d="M232,296.2c0,0.7-0.4,1.2-1,1.5c-0.7,0.3-1.5,0.1-1.8-0.6c-0.9-2-1.8-4.1-2.6-6.1c-0.3-0.7,0-1.3,0.7-1.6
			c0.6-0.3,1.3-0.1,1.8,0.6c0.4,0.7,0.8,1.5,1.2,2.3c0.5,0.9,0.9,1.8,1.4,2.7C231.9,295.3,232,295.7,232,296.2z"/>
		<path class="st6" d="M216.3,294.3c0-1.3,0.4-1.8,1.1-1.9c0.7-0.1,1.4,0.3,1.6,1.1c0.5,2,0.9,4.1,1.3,6.2c0.2,1.1-0.3,1.6-1.2,1.7
			c-1,0.1-1.6-0.2-1.8-1.2C216.9,298.1,216.6,296,216.3,294.3z"/>
		<path class="st6" d="M208.1,297.4c0,1,0.1,2.1,0,3.1c-0.1,1-0.5,1.4-1.3,1.5c-1.1,0.1-1.9-0.5-1.8-1.5c0.1-2.1,0.4-4.2,0.6-6.3
			c0.1-0.8,0.7-1.3,1.4-1.3c0.7,0,1.2,0.6,1.3,1.6c0,1,0,1.9,0,2.9C208.2,297.4,208.2,297.4,208.1,297.4z"/>
		<path class="st4" d="M200.8,208c0,1.1-0.4,1.6-1.1,1.8c-0.7,0.1-1.3-0.2-1.6-1c-0.6-2-1.2-4-1.7-6.1c-0.2-0.8,0.3-1.5,1.1-1.7
			c0.9-0.3,1.7,0.1,1.9,1C199.9,204,200.3,206.1,200.8,208z"/>
		<path class="st4" d="M181.9,218.4c0,0.9-0.7,1.5-1.6,1.4c-0.4-0.1-0.7-0.3-1-0.6c-1.3-1.4-2.7-2.8-4-4.2c-0.7-0.8-0.7-1.6,0-2.3
			c0.5-0.6,1.8-0.6,2.4,0.2c1.2,1.5,2.4,2.9,3.6,4.3C181.7,217.5,181.9,217.9,181.9,218.4z"/>
		<path class="st4" d="M254.3,248.6c-0.3,0-0.4,0-0.6,0c-1.2,0-1.9-0.5-1.9-1.3c0-0.8,0.6-1.4,1.8-1.5c1.8-0.2,3.6-0.4,5.5-0.6
			c1.1-0.1,1.7,0.4,1.8,1.3c0.1,1.1-0.4,1.7-1.5,1.8C257.7,248.4,255.9,248.4,254.3,248.6z"/>
		<path class="st4" d="M252,261.4c2.1,0.5,4.2,1,6.4,1.6c0.8,0.2,1.1,1.2,0.8,2c-0.3,0.8-1,1.2-1.8,0.9c-2-0.6-3.9-1.2-5.9-1.9
			c-0.9-0.3-1.2-1-1.1-1.8C250.6,261.8,251.2,261.4,252,261.4z"/>
		<path class="st4" d="M251.2,238c-0.7,0-1.2-0.1-1.4-0.7c-0.2-0.7-0.1-1.3,0.5-1.7c0.3-0.2,0.7-0.4,1-0.5c1.6-0.6,3.1-1.2,4.7-1.7
			c1.2-0.4,2-0.1,2.4,0.8c0.3,0.9-0.1,1.7-1.2,2.1c-1.7,0.6-3.5,1.1-5.2,1.6C251.7,238,251.4,238,251.2,238z"/>
		<path class="st6" d="M197.7,292.8c-0.6,1.9-1.1,4-1.8,6c-0.3,0.9-1,1.2-1.8,1c-0.9-0.2-1.4-0.9-1.2-1.8c0.1-0.5,0.3-0.9,0.4-1.4
			c0.6-1.6,1.1-3.2,1.7-4.7c0.3-0.8,1-1.1,1.7-0.9C197.5,291.3,197.8,291.9,197.7,292.8z"/>
		<path class="st4" d="M214.1,207.1c0.2-2,0.4-3.9,0.6-5.8c0.1-1,0.8-1.5,1.8-1.3c0.9,0.1,1.4,0.8,1.3,1.7c-0.3,1.9-0.6,3.8-0.9,5.7
			c0,0.3-0.1,0.5-0.3,0.8c-0.3,0.5-0.7,0.9-1.3,0.8c-0.7-0.1-1.1-0.5-1.2-1.1C214.1,207.6,214.1,207.2,214.1,207.1z"/>
		<path class="st4" d="M249.3,282.5c-0.4,0-0.7-0.3-1.1-0.5c-1.4-1.1-2.8-2.2-4.1-3.4c-0.2-0.2-0.5-0.4-0.7-0.7
			c-0.3-0.5-0.4-1,0-1.5c0.3-0.5,0.9-0.6,1.4-0.5c0.2,0,0.4,0.1,0.6,0.2c1.7,1.2,3.5,2.4,5.1,3.7c0.8,0.6,0.7,1.7-0.1,2.4
			C250.1,282.4,249.8,282.5,249.3,282.5z"/>
		<path class="st6" d="M173.7,287c-0.5,0-0.9-0.4-1.2-0.9c-0.3-0.5-0.3-1,0.1-1.5c0.2-0.3,0.4-0.5,0.7-0.7c1.3-1.2,2.6-2.3,3.9-3.5
			c0.9-0.8,1.7-0.9,2.3-0.2c0.5,0.6,0.5,1.4-0.3,2.2c-1.3,1.4-2.7,2.8-4.1,4.2C174.7,286.7,174.3,287,173.7,287z"/>
		<path class="st4" d="M178.1,222.3c0,0.9-0.8,1.5-1.7,1.2c-0.3-0.1-0.6-0.3-0.8-0.5c-1.5-1.2-3-2.3-4.4-3.6c-1-0.8-0.9-1.9,0-2.6
			c0.6-0.4,1.2-0.5,1.8,0c1.6,1.4,3.2,2.9,4.7,4.4C178,221.5,178.1,221.9,178.1,222.3z"/>
		<path class="st4" d="M249.5,218.7c0,0.5-0.2,0.9-0.6,1.3c-1.6,1.2-3.1,2.5-4.7,3.7c-0.8,0.6-1.5,0.5-2,0c-0.6-0.6-0.5-1.4,0.3-2.1
			c1.5-1.4,3-2.7,4.5-4c0.5-0.4,1.1-0.5,1.6-0.3C249.1,217.6,249.4,218.1,249.5,218.7z"/>
		<path class="st4" d="M172.2,230.9c0,0.9-0.4,1.4-1.1,1.5c-0.4,0-0.7,0-1.1-0.2c-1.7-0.8-3.4-1.6-5.1-2.4c-1-0.5-1.4-1.4-0.9-2.2
			c0.4-0.9,1.3-1.1,2.3-0.6c1.7,0.9,3.3,1.8,5,2.7C171.7,230.1,172.1,230.5,172.2,230.9z"/>
		<path class="st4" d="M168.5,237.4c-0.1,0-0.3,0-0.4-0.1c-1.9-0.6-3.9-1.2-5.8-1.9c-1.1-0.4-1.3-1.6-0.6-2.5c0.4-0.5,1-0.7,1.6-0.4
			c2,0.7,3.9,1.5,5.8,2.3c0.6,0.3,1,0.8,0.9,1.6C169.9,237.1,169.3,237.4,168.5,237.4z"/>
		<path class="st6" d="M221.5,292.7c0-0.8,0.3-1.4,1-1.6c0.7-0.2,1.3,0.1,1.6,0.8c0.7,2,1.5,4.1,2.1,6.1c0.3,0.8-0.3,1.6-1.1,1.9
			c-0.8,0.2-1.6-0.2-1.9-1.1c-0.5-1.6-0.9-3.2-1.4-4.8C221.8,293.6,221.6,293.1,221.5,292.7z"/>
		<path class="st6" d="M241.1,279.9c0.3,0,0.6,0.1,0.8,0.3c1.6,1.4,3.1,2.8,4.7,4.3c0.6,0.6,0.6,1.2,0.3,1.9
			c-0.4,0.8-1.5,1.1-2.2,0.5c-1.6-1.5-3.1-3.1-4.6-4.8c-0.4-0.4-0.4-1-0.1-1.5C240.1,280.1,240.5,279.9,241.1,279.9z"/>
		<path class="st4" d="M162.2,253.6c-0.8,0-1.5,0-2.3,0c-1,0-1.5-0.6-1.6-1.5c0-0.9,0.5-1.5,1.5-1.5c2.1,0,4.1,0,6.2,0
			c0.9,0,1.5,0.6,1.6,1.3c0,0.7-0.5,1.2-1.5,1.4C164.8,253.5,163.5,253.5,162.2,253.6z"/>
		<path class="st6" d="M211.1,297.5c0-0.9-0.1-1.8-0.1-2.7c0-1.1,0.6-1.9,1.4-1.9c0.7,0,1.3,0.7,1.4,1.7c0.2,1.9,0.3,3.8,0.5,5.6
			c0.1,1.1-0.4,1.7-1.3,1.8c-1.1,0.1-1.7-0.4-1.7-1.6c0-0.5,0-1,0-1.5C211.1,298.5,211.1,298,211.1,297.5
			C211.1,297.5,211.1,297.5,211.1,297.5z"/>
		<path class="st8" d="M247.8,271.4c0.2,0.1,0.5,0.2,0.8,0.3c1.6,0.9,3.2,1.7,4.9,2.6c1,0.6,1.3,1.4,0.8,2.3c-0.4,0.8-1.3,1-2.3,0.5
			c-1.7-1-3.4-2.1-5.1-3.2c-0.7-0.5-0.9-1.2-0.6-1.8C246.6,271.5,247.1,271.4,247.8,271.4z"/>
		<path class="st9" d="M256.6,250.9c1,0,1.9,0,2.9,0c1.1,0,1.7,0.7,1.6,1.6c-0.1,0.9-0.7,1.5-1.7,1.5c-2-0.1-4-0.2-6-0.4
			c-1-0.1-1.5-0.6-1.4-1.4c0-0.8,0.5-1.2,1.5-1.3C254.6,250.8,255.6,250.9,256.6,250.9C256.6,250.9,256.6,250.9,256.6,250.9z"/>
	</g>
	<g>
		<path d="M194.5,248.2c1.8,0,3.2,0.5,4.2,1.5c1,1,1.6,2.3,1.6,4.1c0,2-0.6,3.6-1.9,4.7c-1.3,1.1-3.1,1.6-5.4,1.6
			c-2,0-3.7-0.3-4.9-1v-3.3c0.7,0.3,1.4,0.6,2.3,0.9c0.9,0.2,1.7,0.3,2.5,0.3c2.4,0,3.5-1,3.5-2.9c0-1.8-1.2-2.8-3.7-2.8
			c-0.4,0-0.9,0-1.5,0.1s-1,0.2-1.3,0.3l-1.5-0.8l0.7-9.3h9.9v3.3h-6.5l-0.3,3.6l0.4-0.1C193.1,248.2,193.7,248.2,194.5,248.2z"/>
		<path d="M209.1,248.2c1.8,0,3.2,0.5,4.2,1.5c1,1,1.6,2.3,1.6,4.1c0,2-0.6,3.6-1.9,4.7c-1.3,1.1-3.1,1.6-5.4,1.6
			c-2,0-3.7-0.3-4.9-1v-3.3c0.7,0.3,1.4,0.6,2.3,0.9c0.9,0.2,1.7,0.3,2.5,0.3c2.4,0,3.5-1,3.5-2.9c0-1.8-1.2-2.8-3.7-2.8
			c-0.4,0-0.9,0-1.5,0.1s-1,0.2-1.3,0.3l-1.5-0.8l0.7-9.3h9.9v3.3h-6.5l-0.3,3.6l0.4-0.1C207.7,248.2,208.3,248.2,209.1,248.2z"/>
		<path d="M225.5,247c0,1.9-0.4,3.4-1.1,4.3s-1.8,1.4-3.3,1.4c-1.4,0-2.4-0.5-3.2-1.5c-0.7-1-1.1-2.4-1.1-4.3c0-3.8,1.4-5.7,4.3-5.7
			c1.4,0,2.5,0.5,3.2,1.5C225.1,243.8,225.5,245.2,225.5,247z M219.9,247.1c0,1.1,0.1,1.8,0.3,2.4c0.2,0.5,0.5,0.8,0.9,0.8
			c0.8,0,1.2-1,1.2-3.1c0-2.1-0.4-3.1-1.2-3.1c-0.4,0-0.7,0.3-0.9,0.8C220,245.2,219.9,246,219.9,247.1z M234,241.6l-10.1,18.3h-3
			l10.1-18.3H234z M238.2,254.3c0,1.9-0.4,3.3-1.1,4.3c-0.7,1-1.8,1.4-3.3,1.4c-1.4,0-2.4-0.5-3.2-1.5c-0.7-1-1.1-2.4-1.1-4.3
			c0-3.8,1.4-5.7,4.3-5.7c1.4,0,2.5,0.5,3.2,1.5C237.9,251.1,238.2,252.5,238.2,254.3z M232.7,254.4c0,1.1,0.1,1.8,0.3,2.4
			c0.2,0.5,0.5,0.8,0.9,0.8c0.8,0,1.2-1,1.2-3.1c0-2.1-0.4-3.1-1.2-3.1c-0.4,0-0.7,0.3-0.9,0.8C232.8,252.5,232.7,253.3,232.7,254.4
			z"/>
	</g>
	<g>
		<path d="M792.4,248.2c1.8,0,3.2,0.5,4.2,1.5c1,1,1.6,2.3,1.6,4.1c0,2-0.6,3.6-1.9,4.7c-1.3,1.1-3.1,1.6-5.4,1.6
			c-2,0-3.7-0.3-4.9-1v-3.3c0.7,0.3,1.4,0.6,2.3,0.9c0.9,0.2,1.7,0.3,2.5,0.3c2.4,0,3.5-1,3.5-2.9c0-1.8-1.2-2.8-3.7-2.8
			c-0.4,0-0.9,0-1.5,0.1s-1,0.2-1.3,0.3l-1.5-0.8l0.7-9.3h9.9v3.3h-6.5l-0.3,3.6l0.4-0.1C791.1,248.3,791.7,248.2,792.4,248.2z"/>
		<path d="M813.1,250.7c0,3.2-0.5,5.5-1.6,7.1c-1,1.5-2.7,2.3-4.8,2.3c-2.1,0-3.7-0.8-4.8-2.4c-1.1-1.6-1.6-3.9-1.6-7
			c0-3.2,0.5-5.6,1.6-7.1c1-1.5,2.6-2.3,4.8-2.3c2.1,0,3.7,0.8,4.8,2.4C812.5,245.3,813.1,247.7,813.1,250.7z M804.1,250.7
			c0,2.2,0.2,3.8,0.6,4.8c0.4,1,1,1.5,2,1.5c0.9,0,1.5-0.5,1.9-1.5s0.6-2.6,0.6-4.8c0-2.2-0.2-3.8-0.6-4.8c-0.4-1-1.1-1.5-1.9-1.5
			c-0.9,0-1.6,0.5-1.9,1.5C804.3,246.9,804.1,248.5,804.1,250.7z"/>
		<path d="M823.4,247.1c0,1.9-0.4,3.4-1.1,4.3c-0.7,1-1.8,1.4-3.3,1.4c-1.4,0-2.4-0.5-3.2-1.5s-1.1-2.4-1.1-4.3
			c0-3.8,1.4-5.7,4.3-5.7c1.4,0,2.5,0.5,3.2,1.5C823.1,243.8,823.4,245.2,823.4,247.1z M817.9,247.1c0,1.1,0.1,1.8,0.3,2.4
			c0.2,0.5,0.5,0.8,0.9,0.8c0.8,0,1.2-1,1.2-3.1c0-2.1-0.4-3.1-1.2-3.1c-0.4,0-0.7,0.3-0.9,0.8C818,245.2,817.9,246,817.9,247.1z
			 M832,241.6l-10.1,18.3h-3l10.1-18.3H832z M836.2,254.3c0,1.9-0.4,3.3-1.1,4.3c-0.7,1-1.8,1.4-3.3,1.4c-1.4,0-2.4-0.5-3.2-1.5
			s-1.1-2.4-1.1-4.3c0-3.8,1.4-5.7,4.3-5.7c1.4,0,2.5,0.5,3.2,1.5C835.8,251.1,836.2,252.5,836.2,254.3z M830.7,254.4
			c0,1.1,0.1,1.8,0.3,2.4c0.2,0.5,0.5,0.8,0.9,0.8c0.8,0,1.2-1,1.2-3.1c0-2.1-0.4-3.1-1.2-3.1c-0.4,0-0.7,0.3-0.9,0.8
			C830.8,252.5,830.7,253.3,830.7,254.4z"/>
	</g>
	<g>
		<path class="st4" d="M805.1,204c0-1.1,0-2,0-2.9c0-1,0.6-1.6,1.4-1.7c0.9-0.1,1.7,0.6,1.7,1.6c0,2.2-0.1,4.3-0.3,6.5
			c-0.1,0.7-0.6,1.2-1.3,1.2c-0.7,0-1.2-0.5-1.3-1.2C805.2,206.2,805.2,205,805.1,204z"/>
		<path class="st4" d="M787.3,212c0,0.7-0.2,1.1-0.6,1.4c-0.5,0.3-1,0.3-1.5-0.1c-0.2-0.2-0.4-0.4-0.5-0.6c-1-1.7-2-3.4-2.9-5.1
			c-0.5-1-0.3-1.8,0.5-2.2c0.9-0.5,1.7-0.2,2.3,0.8c0.9,1.7,1.7,3.4,2.5,5.1C787.1,211.6,787.2,211.9,787.3,212z"/>
		<path class="st4" d="M815.9,208.4c0.5-2.1,0.9-4.2,1.5-6.3c0.2-0.9,1.1-1.3,1.9-1c0.8,0.2,1.3,0.8,1.1,1.7
			c-0.5,2.1-1.1,4.2-1.8,6.2c-0.3,0.8-1,1.1-1.7,0.9C816.3,209.8,815.9,209.1,815.9,208.4z"/>
		<path class="st6" d="M797,301.3c-1.1,0-1.8-0.7-1.6-1.8c0.4-2,0.8-4,1.3-6c0.2-0.9,1-1.4,1.7-1.2c0.7,0.2,1.2,0.9,1.1,1.8
			c-0.3,2-0.6,4-0.9,5.9C798.4,300.9,797.8,301.3,797,301.3z"/>
		<path class="st6" d="M784.6,287.9c-0.1,0.2-0.2,0.5-0.3,0.8c-1,1.7-1.9,3.4-3,5c-0.6,1-1.6,1.2-2.5,0.5c-0.6-0.5-0.8-1.2-0.3-1.9
			c1.1-1.8,2.3-3.5,3.5-5.3c0.4-0.6,1-0.9,1.7-0.6C784.3,286.8,784.5,287.2,784.6,287.9z"/>
		<path class="st4" d="M841.8,214.3c0,0.5-0.2,0.9-0.6,1.3c-1.3,1.3-2.6,2.7-4,4c-0.2,0.2-0.4,0.4-0.6,0.5c-0.6,0.2-1.2,0.2-1.6-0.3
			c-0.5-0.5-0.5-1.1-0.1-1.6c1.4-1.7,2.9-3.4,4.3-5c0.4-0.5,1-0.5,1.6-0.2C841.4,213.2,841.8,213.6,841.8,214.3z"/>
		<path class="st4" d="M826.3,204.7c0,0.1,0,0.3-0.1,0.5c-0.8,1.8-1.6,3.7-2.4,5.5c-0.4,0.8-1.1,1.1-1.8,0.9c-0.7-0.3-1-1-0.7-1.9
			c0.6-1.9,1.3-3.8,2-5.6c0.3-0.9,1-1.2,1.8-1.1C825.8,203.1,826.3,203.7,826.3,204.7z"/>
		<path class="st4" d="M782.7,214.9c0,0.7-0.3,1.1-0.8,1.4c-0.5,0.2-0.9,0.1-1.4-0.2c-0.2-0.1-0.3-0.3-0.4-0.5
			c-1.2-1.6-2.3-3.1-3.5-4.7c-0.6-0.8-0.5-1.6,0.1-2.2c0.7-0.6,1.7-0.6,2.3,0.2c1.2,1.7,2.3,3.5,3.5,5.3
			C782.6,214.5,782.7,214.8,782.7,214.9z"/>
		<path class="st4" d="M769.9,227.9c-0.1,0-0.4-0.1-0.6-0.2c-1.7-1.1-3.5-2.1-5.2-3.3c-0.8-0.5-0.9-1.2-0.6-2
			c0.4-0.9,1.4-1.3,2.3-0.7c1.7,1.1,3.3,2.4,5,3.6c0.6,0.4,0.8,1,0.5,1.7C771.1,227.6,770.7,227.9,769.9,227.9z"/>
		<path class="st4" d="M849.6,223.8c0,0.6-0.2,1-0.7,1.3c-1.7,1-3.4,2.1-5.1,3.1c-0.8,0.5-1.6,0.3-2-0.3c-0.4-0.6-0.3-1.4,0.5-2
			c1.7-1.2,3.4-2.3,5-3.5C848.3,221.6,849.7,222.6,849.6,223.8z"/>
		<path class="st4" d="M763.1,242.5c-1.8-0.3-3.8-0.7-5.8-1.1c-0.9-0.2-1.4-1-1.2-1.8c0.2-0.9,1-1.4,2-1.2c1.9,0.5,3.9,1,5.8,1.5
			c1,0.3,1.4,0.9,1.2,1.6C764.9,242.2,764.3,242.6,763.1,242.5z"/>
		<path class="st6" d="M757.3,259.6c-1.2,0-1.7-0.4-1.9-1.4c-0.1-0.9,0.3-1.6,1.2-1.8c1.9-0.3,3.9-0.6,5.9-0.8
			c0.8-0.1,1.3,0.5,1.4,1.2c0.1,0.8-0.3,1.4-1,1.6C761,258.8,759,259.2,757.3,259.6z"/>
		<path class="st6" d="M849.9,256.2c1.9,0.2,3.8,0.4,5.6,0.7c1.1,0.2,1.5,0.7,1.6,1.5c0,1.1-0.7,1.7-1.9,1.6
			c-1.4-0.2-2.8-0.5-4.1-0.7c-0.5-0.1-1.1-0.2-1.6-0.3c-1-0.2-1.6-0.9-1.4-1.7C848.1,256.6,848.9,256.1,849.9,256.2z"/>
		<path class="st6" d="M764.2,261.2c0.7,0,1.2,0.3,1.4,0.9c0.2,0.7-0.1,1.2-0.6,1.5c-0.3,0.2-0.6,0.3-0.9,0.4
			c-1.7,0.5-3.4,1.1-5.1,1.6c-1.2,0.3-1.9,0-2.2-0.9c-0.3-0.9,0.2-1.9,1.3-2.1c1.8-0.4,3.6-0.9,5.4-1.3
			C763.7,261.3,764,261.2,764.2,261.2z"/>
		<path class="st6" d="M846.8,266.6c0.1,0,0.3,0.1,0.5,0.2c1.8,0.7,3.5,1.3,5.3,2.1c1.1,0.4,1.5,1.3,1.1,2.2
			c-0.4,0.9-1.3,1.2-2.3,0.7c-1.7-0.7-3.3-1.5-5-2.3c-0.2-0.1-0.5-0.2-0.7-0.4c-0.5-0.4-0.7-1-0.4-1.6
			C845.5,266.7,846,266.5,846.8,266.6z"/>
		<path class="st7" d="M768.4,271.1c0.6,0,1.1,0.3,1.2,0.9c0.2,0.5,0.1,1.1-0.4,1.5c-0.6,0.4-1.2,0.8-1.8,1.2
			c-1.2,0.7-2.4,1.5-3.6,2.2c-1,0.6-1.9,0.3-2.3-0.5c-0.4-0.8-0.2-1.6,0.7-2.2c1.7-0.9,3.4-1.8,5.1-2.7
			C767.8,271.2,768.1,271.1,768.4,271.1z"/>
		<path class="st6" d="M789.2,290.7c0,0.1-0.1,0.4-0.2,0.6c-0.7,1.7-1.4,3.5-2.2,5.2c-0.6,1.2-1.7,1.5-2.6,0.6
			c-0.5-0.5-0.7-1-0.4-1.6c1-1.9,1.9-3.9,2.9-5.8c0.3-0.6,0.9-0.9,1.7-0.6C789.1,289.3,789.3,289.9,789.2,290.7z"/>
		<path class="st4" d="M831.8,216.8c-0.8,0-1.4-0.7-1.3-1.5c0-0.4,0.3-0.7,0.5-1c1-1.5,2-3.1,3.1-4.6c0.7-1,1.5-1.2,2.3-0.6
			c0.8,0.6,0.9,1.5,0.2,2.4c-1.1,1.5-2.3,3-3.5,4.5C832.8,216.5,832.4,216.8,831.8,216.8z"/>
		<path class="st4" d="M792.2,210c0,0.6-0.2,1.1-0.7,1.3c-0.6,0.2-1.2,0.1-1.6-0.4c-0.1-0.2-0.2-0.4-0.3-0.5
			c-0.8-1.8-1.6-3.7-2.3-5.5c-0.4-0.9,0-1.6,0.8-2c0.8-0.4,1.7-0.2,2,0.7c0.8,2,1.4,4.1,2.1,6.1C792.2,209.8,792.2,209.9,792.2,210z
			"/>
		<path class="st4" d="M849.8,243.2c-1.5,0.1-2-0.2-2.2-0.9c-0.2-0.8,0.3-1.5,1.3-1.7c1.9-0.5,3.8-0.9,5.7-1.4
			c1.1-0.2,1.9,0.3,2,1.3c0.1,0.8-0.3,1.5-1.3,1.7C853.4,242.6,851.4,242.9,849.8,243.2z"/>
		<path class="st4" d="M845.7,233.1c-0.8,0-1.2-0.3-1.5-0.9c-0.2-0.6,0-1.1,0.4-1.4c0.2-0.2,0.4-0.3,0.7-0.4
			c1.6-0.9,3.2-1.7,4.9-2.6c1.1-0.5,2-0.2,2.4,0.8c0.3,0.8,0,1.5-1.1,2c-1.7,0.8-3.4,1.5-5,2.3C846.2,233,846,233.1,845.7,233.1z"/>
		<path class="st4" d="M831.8,207.4c0,0.1-0.1,0.4-0.2,0.6c-1,1.7-2,3.3-3,5c-0.4,0.6-0.9,1-1.6,0.8c-0.8-0.1-1.3-1.1-0.9-1.9
			c0.9-2,1.9-3.9,2.9-5.8c0.4-0.7,1.1-0.9,1.8-0.6C831.5,205.9,831.9,206.5,831.8,207.4z"/>
		<path class="st4" d="M802.6,206.5c0,0.1,0,0.6,0,1.1c0,0.8-0.5,1.2-1.2,1.3c-0.7,0.1-1.2-0.3-1.3-1c-0.2-0.6-0.3-1.3-0.4-1.9
			c-0.2-1.3-0.4-2.7-0.6-4c-0.1-0.5-0.2-1,0.1-1.4c0.3-0.6,1.2-1,1.8-0.8c0.7,0.2,1.2,0.8,1.2,1.5
			C802.3,202.9,802.4,204.5,802.6,206.5z"/>
		<path class="st4" d="M757,244.4c1.9,0.2,3.9,0.4,5.8,0.7c1,0.1,1.4,0.7,1.4,1.5c0,0.8-0.6,1.4-1.7,1.3c-1.9-0.2-3.8-0.2-5.7-0.3
			c-0.3,0-0.6-0.1-0.9-0.3c-0.7-0.3-1-1.1-0.8-1.8C755.4,244.7,755.9,244.4,757,244.4z"/>
		<path class="st7" d="M760.3,271.6c-0.7,0-1.4-0.6-1.5-1.3c-0.2-0.8,0.1-1.4,0.8-1.7c0.7-0.3,1.5-0.6,2.2-0.9
			c1.3-0.5,2.5-1,3.8-1.4c0.8-0.3,1.5,0.1,1.7,0.8c0.3,0.7,0,1.4-0.6,1.7c-2,1-4.1,1.9-6.1,2.8C760.5,271.6,760.4,271.6,760.3,271.6
			z"/>
		<path class="st6" d="M772.7,277c0,0.5-0.2,0.9-0.7,1.2c-1.5,1.2-2.9,2.4-4.4,3.5c-0.9,0.7-1.8,0.6-2.4-0.1
			c-0.6-0.8-0.4-1.7,0.5-2.4c1.6-1.1,3.1-2.3,4.8-3.3C771.6,275.2,772.7,275.7,772.7,277z"/>
		<path class="st6" d="M780.1,284.7c0,0.5-0.2,0.9-0.5,1.2c-1.1,1.5-2.2,2.9-3.3,4.4c-0.3,0.5-0.7,0.8-1.3,0.8
			c-0.6,0-1.2-0.2-1.5-0.8c-0.4-0.6-0.3-1.2,0.1-1.7c1.4-1.6,2.8-3.3,4.2-4.9c0.4-0.5,1.1-0.5,1.7-0.2
			C780,283.7,780.2,284.1,780.1,284.7z"/>
		<path class="st6" d="M833.6,283.5c0.5,0.1,0.9,0.3,1.2,0.7c1.2,1.4,2.5,2.9,3.7,4.3c0.8,1,0.7,1.8-0.1,2.4
			c-0.8,0.6-1.7,0.5-2.4-0.4c-1.2-1.5-2.3-3.1-3.5-4.7c-0.4-0.5-0.5-1.1-0.2-1.7C832.7,283.7,833.1,283.5,833.6,283.5z"/>
		<path class="st6" d="M834,293.5c0,0.5-0.4,1-1.1,1.2c-0.7,0.2-1.4,0.1-1.7-0.5c-1.1-1.8-2.2-3.7-3.2-5.6c-0.4-0.8-0.1-1.5,0.5-1.8
			c0.6-0.3,1.4-0.2,1.9,0.5c0.9,1.3,1.8,2.7,2.7,4c0.2,0.4,0.5,0.7,0.7,1.1C833.9,292.6,834.1,292.9,834,293.5z"/>
		<path class="st6" d="M828.6,296.2c0,0.7-0.4,1.2-1,1.5c-0.7,0.3-1.5,0.1-1.8-0.6c-0.9-2-1.8-4.1-2.6-6.1c-0.3-0.7,0-1.3,0.7-1.6
			c0.6-0.3,1.3-0.1,1.8,0.6c0.4,0.7,0.8,1.5,1.2,2.3c0.5,0.9,0.9,1.8,1.4,2.7C828.4,295.3,828.6,295.7,828.6,296.2z"/>
		<path class="st6" d="M812.9,294.3c0-1.3,0.4-1.8,1.1-1.9c0.7-0.1,1.4,0.3,1.6,1.1c0.5,2,0.9,4.1,1.3,6.2c0.2,1.1-0.3,1.6-1.2,1.7
			c-1,0.1-1.6-0.2-1.8-1.2C813.5,298.1,813.2,296,812.9,294.3z"/>
		<path class="st6" d="M804.7,297.4c0,1,0.1,2.1,0,3.1c-0.1,1-0.5,1.4-1.3,1.5c-1.1,0.1-1.9-0.5-1.8-1.5c0.1-2.1,0.4-4.2,0.6-6.3
			c0.1-0.8,0.7-1.3,1.4-1.3c0.7,0,1.2,0.6,1.3,1.6c0,1,0,1.9,0,2.9C804.8,297.4,804.7,297.4,804.7,297.4z"/>
		<path class="st4" d="M797.3,208c0,1.1-0.4,1.6-1.1,1.8c-0.7,0.1-1.3-0.2-1.6-1c-0.6-2-1.2-4-1.7-6.1c-0.2-0.8,0.3-1.5,1.1-1.7
			c0.9-0.3,1.7,0.1,1.9,1C796.5,204,796.9,206.1,797.3,208z"/>
		<path class="st4" d="M778.5,218.4c0,0.9-0.7,1.5-1.6,1.4c-0.4-0.1-0.7-0.3-1-0.6c-1.3-1.4-2.7-2.8-4-4.2c-0.7-0.8-0.7-1.6,0-2.3
			c0.5-0.6,1.8-0.6,2.4,0.2c1.2,1.5,2.4,2.9,3.6,4.3C778.2,217.5,778.5,217.9,778.5,218.4z"/>
		<path class="st4" d="M850.9,248.6c-0.3,0-0.4,0-0.6,0c-1.2,0-1.9-0.5-1.9-1.3c0-0.8,0.6-1.4,1.8-1.5c1.8-0.2,3.6-0.4,5.5-0.6
			c1.1-0.1,1.7,0.4,1.8,1.3c0.1,1.1-0.4,1.7-1.5,1.8C854.2,248.4,852.5,248.4,850.9,248.6z"/>
		<path class="st6" d="M848.5,261.4c2.1,0.5,4.2,1,6.4,1.6c0.8,0.2,1.1,1.2,0.8,2c-0.3,0.8-1,1.2-1.8,0.9c-2-0.6-3.9-1.2-5.9-1.9
			c-0.9-0.3-1.2-1-1.1-1.8C847.1,261.8,847.7,261.4,848.5,261.4z"/>
		<path class="st4" d="M847.8,238c-0.7,0-1.2-0.1-1.4-0.7c-0.2-0.7-0.1-1.3,0.5-1.7c0.3-0.2,0.7-0.4,1-0.5c1.6-0.6,3.1-1.2,4.7-1.7
			c1.2-0.4,2-0.1,2.4,0.8c0.3,0.9-0.1,1.7-1.2,2.1c-1.7,0.6-3.5,1.1-5.2,1.6C848.2,238,848,238,847.8,238z"/>
		<path class="st6" d="M794.3,292.8c-0.6,1.9-1.1,4-1.8,6c-0.3,0.9-1,1.2-1.8,1c-0.9-0.2-1.4-0.9-1.2-1.8c0.1-0.5,0.3-0.9,0.4-1.4
			c0.6-1.6,1.1-3.2,1.7-4.7c0.3-0.8,1-1.1,1.7-0.9C794,291.3,794.4,291.9,794.3,292.8z"/>
		<path class="st4" d="M810.7,207.1c0.2-2,0.4-3.9,0.6-5.8c0.1-1,0.8-1.5,1.8-1.3c0.9,0.1,1.4,0.8,1.3,1.7c-0.3,1.9-0.6,3.8-0.9,5.7
			c0,0.3-0.1,0.5-0.3,0.8c-0.3,0.5-0.7,0.9-1.3,0.8c-0.7-0.1-1.1-0.5-1.2-1.1C810.6,207.6,810.7,207.2,810.7,207.1z"/>
		<path class="st6" d="M845.9,282.5c-0.4,0-0.7-0.3-1.1-0.5c-1.4-1.1-2.8-2.2-4.1-3.4c-0.2-0.2-0.5-0.4-0.7-0.7
			c-0.3-0.5-0.4-1,0-1.5c0.3-0.5,0.9-0.6,1.4-0.5c0.2,0,0.4,0.1,0.6,0.2c1.7,1.2,3.5,2.4,5.1,3.7c0.8,0.6,0.7,1.7-0.1,2.4
			C846.7,282.4,846.3,282.5,845.9,282.5z"/>
		<path class="st6" d="M770.2,287c-0.5,0-0.9-0.4-1.2-0.9c-0.3-0.5-0.3-1,0.1-1.5c0.2-0.3,0.4-0.5,0.7-0.7c1.3-1.2,2.6-2.3,3.9-3.5
			c0.9-0.8,1.7-0.9,2.3-0.2c0.5,0.6,0.5,1.4-0.3,2.2c-1.3,1.4-2.7,2.8-4.1,4.2C771.2,286.7,770.9,287,770.2,287z"/>
		<path class="st4" d="M774.7,222.3c0,0.9-0.8,1.5-1.7,1.2c-0.3-0.1-0.6-0.3-0.8-0.5c-1.5-1.2-3-2.3-4.4-3.6c-1-0.8-0.9-1.9,0-2.6
			c0.6-0.4,1.2-0.5,1.8,0c1.6,1.4,3.2,2.9,4.7,4.4C774.6,221.5,774.7,221.9,774.7,222.3z"/>
		<path class="st4" d="M846,218.7c0,0.5-0.2,0.9-0.6,1.3c-1.6,1.2-3.1,2.5-4.7,3.7c-0.8,0.6-1.5,0.5-2,0c-0.6-0.6-0.5-1.4,0.3-2.1
			c1.5-1.4,3-2.7,4.5-4c0.5-0.4,1.1-0.5,1.6-0.3C845.7,217.6,846,218.1,846,218.7z"/>
		<path class="st4" d="M768.7,230.9c0,0.9-0.4,1.4-1.1,1.5c-0.4,0-0.7,0-1.1-0.2c-1.7-0.8-3.4-1.6-5.1-2.4c-1-0.5-1.4-1.4-0.9-2.2
			c0.4-0.9,1.3-1.1,2.3-0.6c1.7,0.9,3.3,1.8,5,2.7C768.3,230.1,768.7,230.5,768.7,230.9z"/>
		<path class="st4" d="M765.1,237.4c-0.1,0-0.3,0-0.4-0.1c-1.9-0.6-3.9-1.2-5.8-1.9c-1.1-0.4-1.3-1.6-0.6-2.5c0.4-0.5,1-0.7,1.6-0.4
			c2,0.7,3.9,1.5,5.8,2.3c0.6,0.3,1,0.8,0.9,1.6C766.4,237.1,765.9,237.4,765.1,237.4z"/>
		<path class="st6" d="M818.1,292.7c0-0.8,0.3-1.4,1-1.6c0.7-0.2,1.3,0.1,1.6,0.8c0.7,2,1.5,4.1,2.1,6.1c0.3,0.8-0.3,1.6-1.1,1.9
			c-0.8,0.2-1.6-0.2-1.9-1.1c-0.5-1.6-0.9-3.2-1.4-4.8C818.3,293.6,818.2,293.1,818.1,292.7z"/>
		<path class="st6" d="M837.6,279.9c0.3,0,0.6,0.1,0.8,0.3c1.6,1.4,3.1,2.8,4.7,4.3c0.6,0.6,0.6,1.2,0.3,1.9
			c-0.4,0.8-1.5,1.1-2.2,0.5c-1.6-1.5-3.1-3.1-4.6-4.8c-0.4-0.4-0.4-1-0.1-1.5C836.6,280.1,837,279.9,837.6,279.9z"/>
		<path class="st6" d="M758.7,253.6c-0.8,0-1.5,0-2.3,0c-1,0-1.5-0.6-1.6-1.5c0-0.9,0.5-1.5,1.5-1.5c2.1,0,4.1,0,6.2,0
			c0.9,0,1.5,0.6,1.6,1.3c0,0.7-0.5,1.2-1.5,1.4C761.3,253.5,760,253.5,758.7,253.6z"/>
		<path class="st6" d="M807.6,297.5c0-0.9-0.1-1.8-0.1-2.7c0-1.1,0.6-1.9,1.4-1.9c0.7,0,1.3,0.7,1.4,1.7c0.2,1.9,0.3,3.8,0.5,5.6
			c0.1,1.1-0.4,1.7-1.3,1.8c-1.1,0.1-1.7-0.4-1.7-1.6c0-0.5,0-1,0-1.5C807.6,298.5,807.7,298,807.6,297.5
			C807.6,297.5,807.6,297.5,807.6,297.5z"/>
		<path class="st6" d="M844.3,271.4c0.2,0.1,0.5,0.2,0.8,0.3c1.6,0.9,3.2,1.7,4.9,2.6c1,0.6,1.3,1.4,0.8,2.3c-0.4,0.8-1.3,1-2.3,0.5
			c-1.7-1-3.4-2.1-5.1-3.2c-0.7-0.5-0.9-1.2-0.6-1.8C843.1,271.5,843.6,271.4,844.3,271.4z"/>
		<path class="st9" d="M853.2,250.9c1,0,1.9,0,2.9,0c1.1,0,1.7,0.7,1.6,1.6c-0.1,0.9-0.7,1.5-1.7,1.5c-2-0.1-4-0.2-6-0.4
			c-1-0.1-1.5-0.6-1.4-1.4c0-0.8,0.5-1.2,1.5-1.3C851.1,250.8,852.1,250.9,853.2,250.9C853.2,250.9,853.2,250.9,853.2,250.9z"/>
	</g>
</g>
</svg>
